<?xml version="1.0" encoding="UTF-8" standalone="no"?>
<!DOCTYPE svg PUBLIC "-//W3C//DTD SVG 1.1//EN"
 "http://www.w3.org/Graphics/SVG/1.1/DTD/svg11.dtd">
<!-- Generated by graphviz version 2.40.1 (20161225.0304)
 -->
<!-- Title: dependencies Pages: 1 -->
<svg width="2911pt" height="211pt"
 viewBox="0.00 0.00 2911.00 211.00" xmlns="http://www.w3.org/2000/svg" xmlns:xlink="http://www.w3.org/1999/xlink">
<g id="graph0" class="graph" transform="scale(1 1) rotate(0) translate(4 207)">
<title>dependencies</title>
<polygon fill="#ffffff" stroke="transparent" points="-4,4 -4,-207 2907,-207 2907,4 -4,4"/>
<text text-anchor="start" x="1430.5091" y="-42.4" font-family="sans-serif" font-weight="bold" font-size="14.00" fill="#000000">Legend</text>
<polygon fill="#ffffb3" stroke="transparent" points="1217.5,-10 1217.5,-30 1237.5,-30 1237.5,-10 1217.5,-10"/>
<text text-anchor="start" x="1241.129" y="-15.4" font-family="sans-serif" font-size="14.00" fill="#000000"> &#160;Declarations</text>
<polygon fill="#8dd3c7" stroke="transparent" points="1330.5,-10 1330.5,-30 1350.5,-30 1350.5,-10 1330.5,-10"/>
<text text-anchor="start" x="1354.2251" y="-15.4" font-family="sans-serif" font-size="14.00" fill="#000000"> &#160;Module</text>
<polygon fill="#80b1d3" stroke="transparent" points="1416.5,-10 1416.5,-30 1436.5,-30 1436.5,-10 1416.5,-10"/>
<text text-anchor="start" x="1440.2812" y="-15.4" font-family="sans-serif" font-size="14.00" fill="#000000"> &#160;Bootstrap</text>
<polygon fill="#fdb462" stroke="transparent" points="1513.5,-10 1513.5,-30 1533.5,-30 1533.5,-10 1513.5,-10"/>
<text text-anchor="start" x="1537.1732" y="-15.4" font-family="sans-serif" font-size="14.00" fill="#000000"> &#160;Providers</text>
<polygon fill="#fb8072" stroke="transparent" points="1609.5,-10 1609.5,-30 1629.5,-30 1629.5,-10 1609.5,-10"/>
<text text-anchor="start" x="1633.2258" y="-15.4" font-family="sans-serif" font-size="14.00" fill="#000000"> &#160;Exports</text>
<g id="clust1" class="cluster">
<title>cluster_CoreModule</title>
<polygon fill="none" stroke="#000000" stroke-dasharray="1,5" points="8,-70 8,-195 2895,-195 2895,-70 8,-70"/>
</g>
<g id="clust6" class="cluster">
<title>cluster_CoreModule_providers</title>
<polygon fill="none" stroke="#000000" points="16,-78 16,-130 2887,-130 2887,-78 16,-78"/>
</g>
<!-- CartService -->
<g id="node1" class="node">
<title>CartService</title>
<ellipse fill="#fdb462" stroke="#000000" cx="2822" cy="-104" rx="56.7348" ry="18"/>
<text text-anchor="middle" x="2822" y="-99.8" font-family="Times,serif" font-size="14.00" fill="#000000">CartService</text>
</g>
<!-- CoreModule -->
<g id="node18" class="node">
<title>CoreModule</title>
<polygon fill="#8dd3c7" stroke="#000000" points="1506.2619,-187 1503.2619,-191 1482.2619,-191 1479.2619,-187 1419.7381,-187 1419.7381,-151 1506.2619,-151 1506.2619,-187"/>
<text text-anchor="middle" x="1463" y="-164.8" font-family="Times,serif" font-size="14.00" fill="#000000">CoreModule</text>
</g>
<!-- CartService&#45;&gt;CoreModule -->
<g id="edge1" class="edge">
<title>CartService&#45;&gt;CoreModule</title>
<path fill="none" stroke="#000000" d="M2822,-122.3228C2822,-145.6602 2822,-183 2822,-183 2822,-183 1516.2962,-183 1516.2962,-183"/>
<polygon fill="#000000" stroke="#000000" points="1516.2962,-179.5001 1506.2962,-183 1516.2961,-186.5001 1516.2962,-179.5001"/>
</g>
<!-- AuthServiceLocal -->
<g id="node2" class="node">
<title>AuthServiceLocal</title>
<ellipse fill="#fdb462" stroke="#000000" cx="2666" cy="-104" rx="81.0782" ry="18"/>
<text text-anchor="middle" x="2666" y="-99.8" font-family="Times,serif" font-size="14.00" fill="#000000">AuthServiceLocal</text>
</g>
<!-- AuthServiceLocal&#45;&gt;CoreModule -->
<g id="edge2" class="edge">
<title>AuthServiceLocal&#45;&gt;CoreModule</title>
<path fill="none" stroke="#000000" d="M2666,-122.1554C2666,-144.3519 2666,-179 2666,-179 2666,-179 1516.5261,-179 1516.5261,-179"/>
<polygon fill="#000000" stroke="#000000" points="1516.5261,-175.5001 1506.5261,-179 1516.5261,-182.5001 1516.5261,-175.5001"/>
</g>
<!-- UserService -->
<g id="node3" class="node">
<title>UserService</title>
<ellipse fill="#fdb462" stroke="#000000" cx="2508" cy="-104" rx="58.4415" ry="18"/>
<text text-anchor="middle" x="2508" y="-99.8" font-family="Times,serif" font-size="14.00" fill="#000000">UserService</text>
</g>
<!-- UserService&#45;&gt;CoreModule -->
<g id="edge3" class="edge">
<title>UserService&#45;&gt;CoreModule</title>
<path fill="none" stroke="#000000" d="M2508,-122.2843C2508,-143.3211 2508,-175 2508,-175 2508,-175 1516.5719,-175 1516.5719,-175"/>
<polygon fill="#000000" stroke="#000000" points="1516.5719,-171.5001 1506.5719,-175 1516.5719,-178.5001 1516.5719,-171.5001"/>
</g>
<!-- AddressService -->
<g id="node4" class="node">
<title>AddressService</title>
<ellipse fill="#fdb462" stroke="#000000" cx="2360" cy="-104" rx="71.766" ry="18"/>
<text text-anchor="middle" x="2360" y="-99.8" font-family="Times,serif" font-size="14.00" fill="#000000">AddressService</text>
</g>
<!-- AddressService&#45;&gt;CoreModule -->
<g id="edge4" class="edge">
<title>AddressService&#45;&gt;CoreModule</title>
<path fill="none" stroke="#000000" d="M2360,-122.308C2360,-142.1455 2360,-171 2360,-171 2360,-171 1516.2642,-171 1516.2642,-171"/>
<polygon fill="#000000" stroke="#000000" points="1516.2642,-167.5001 1506.2642,-171 1516.2641,-174.5001 1516.2642,-167.5001"/>
</g>
<!-- AuthGuard -->
<g id="node5" class="node">
<title>AuthGuard</title>
<ellipse fill="#fdb462" stroke="#000000" cx="2216" cy="-104" rx="54.4566" ry="18"/>
<text text-anchor="middle" x="2216" y="-99.8" font-family="Times,serif" font-size="14.00" fill="#000000">AuthGuard</text>
</g>
<!-- AuthGuard&#45;&gt;CoreModule -->
<g id="edge5" class="edge">
<title>AuthGuard&#45;&gt;CoreModule</title>
<path fill="none" stroke="#000000" d="M2216,-122.2222C2216,-140.8285 2216,-167 2216,-167 2216,-167 1516.4638,-167 1516.4638,-167"/>
<polygon fill="#000000" stroke="#000000" points="1516.4638,-163.5001 1506.4638,-167 1516.4637,-170.5001 1516.4638,-163.5001"/>
</g>
<!-- ProductCategoryService -->
<g id="node6" class="node">
<title>ProductCategoryService</title>
<ellipse fill="#fdb462" stroke="#000000" cx="2038" cy="-104" rx="105.3567" ry="18"/>
<text text-anchor="middle" x="2038" y="-99.8" font-family="Times,serif" font-size="14.00" fill="#000000">ProductCategoryService</text>
</g>
<!-- ProductCategoryService&#45;&gt;CoreModule -->
<g id="edge6" class="edge">
<title>ProductCategoryService&#45;&gt;CoreModule</title>
<path fill="none" stroke="#000000" d="M2038,-122.0225C2038,-139.3734 2038,-163 2038,-163 2038,-163 1516.6904,-163 1516.6904,-163"/>
<polygon fill="#000000" stroke="#000000" points="1516.6904,-159.5001 1506.6904,-163 1516.6904,-166.5001 1516.6904,-159.5001"/>
</g>
<!-- ProductFilterService -->
<g id="node7" class="node">
<title>ProductFilterService</title>
<ellipse fill="#fdb462" stroke="#000000" cx="1824" cy="-104" rx="90.9032" ry="18"/>
<text text-anchor="middle" x="1824" y="-99.8" font-family="Times,serif" font-size="14.00" fill="#000000">ProductFilterService</text>
</g>
<!-- ProductFilterService&#45;&gt;CoreModule -->
<g id="edge7" class="edge">
<title>ProductFilterService&#45;&gt;CoreModule</title>
<path fill="none" stroke="#000000" d="M1824,-122.0091C1824,-138.0494 1824,-159 1824,-159 1824,-159 1516.545,-159 1516.545,-159"/>
<polygon fill="#000000" stroke="#000000" points="1516.5451,-155.5001 1506.545,-159 1516.545,-162.5001 1516.5451,-155.5001"/>
</g>
<!-- ProductSortService -->
<g id="node8" class="node">
<title>ProductSortService</title>
<ellipse fill="#fdb462" stroke="#000000" cx="1629" cy="-104" rx="86.2522" ry="18"/>
<text text-anchor="middle" x="1629" y="-99.8" font-family="Times,serif" font-size="14.00" fill="#000000">ProductSortService</text>
</g>
<!-- ProductSortService&#45;&gt;CoreModule -->
<g id="edge8" class="edge">
<title>ProductSortService&#45;&gt;CoreModule</title>
<path fill="none" stroke="#000000" d="M1629,-122.1243C1629,-136.7832 1629,-155 1629,-155 1629,-155 1516.6145,-155 1516.6145,-155"/>
<polygon fill="#000000" stroke="#000000" points="1516.6146,-151.5001 1506.6145,-155 1516.6145,-158.5001 1516.6146,-151.5001"/>
</g>
<!-- ColorService -->
<g id="node9" class="node">
<title>ColorService</title>
<ellipse fill="#fdb462" stroke="#000000" cx="1463" cy="-104" rx="61.975" ry="18"/>
<text text-anchor="middle" x="1463" y="-99.8" font-family="Times,serif" font-size="14.00" fill="#000000">ColorService</text>
</g>
<!-- ColorService&#45;&gt;CoreModule -->
<g id="edge9" class="edge">
<title>ColorService&#45;&gt;CoreModule</title>
<path fill="none" stroke="#000000" d="M1463,-122.1061C1463,-122.1061 1463,-140.991 1463,-140.991"/>
<polygon fill="#000000" stroke="#000000" points="1459.5001,-140.9909 1463,-150.991 1466.5001,-140.991 1459.5001,-140.9909"/>
</g>
<!-- ProductSearchService -->
<g id="node10" class="node">
<title>ProductSearchService</title>
<ellipse fill="#fdb462" stroke="#000000" cx="1287" cy="-104" rx="96.1054" ry="18"/>
<text text-anchor="middle" x="1287" y="-99.8" font-family="Times,serif" font-size="14.00" fill="#000000">ProductSearchService</text>
</g>
<!-- ProductSearchService&#45;&gt;CoreModule -->
<g id="edge10" class="edge">
<title>ProductSearchService&#45;&gt;CoreModule</title>
<path fill="none" stroke="#000000" d="M1287,-122.1243C1287,-136.7832 1287,-155 1287,-155 1287,-155 1409.4944,-155 1409.4944,-155"/>
<polygon fill="#000000" stroke="#000000" points="1409.4944,-158.5001 1419.4944,-155 1409.4943,-151.5001 1409.4944,-158.5001"/>
</g>
<!-- ProductService -->
<g id="node11" class="node">
<title>ProductService</title>
<ellipse fill="#fdb462" stroke="#000000" cx="1103" cy="-104" rx="70.0616" ry="18"/>
<text text-anchor="middle" x="1103" y="-99.8" font-family="Times,serif" font-size="14.00" fill="#000000">ProductService</text>
</g>
<!-- ProductService&#45;&gt;CoreModule -->
<g id="edge11" class="edge">
<title>ProductService&#45;&gt;CoreModule</title>
<path fill="none" stroke="#000000" d="M1103,-122.0091C1103,-138.0494 1103,-159 1103,-159 1103,-159 1409.5756,-159 1409.5756,-159"/>
<polygon fill="#000000" stroke="#000000" points="1409.5756,-162.5001 1419.5756,-159 1409.5756,-155.5001 1409.5756,-162.5001"/>
</g>
<!-- RatingService -->
<g id="node12" class="node">
<title>RatingService</title>
<ellipse fill="#fdb462" stroke="#000000" cx="949" cy="-104" rx="65.9871" ry="18"/>
<text text-anchor="middle" x="949" y="-99.8" font-family="Times,serif" font-size="14.00" fill="#000000">RatingService</text>
</g>
<!-- RatingService&#45;&gt;CoreModule -->
<g id="edge12" class="edge">
<title>RatingService&#45;&gt;CoreModule</title>
<path fill="none" stroke="#000000" d="M949,-122.0225C949,-139.3734 949,-163 949,-163 949,-163 1409.6196,-163 1409.6196,-163"/>
<polygon fill="#000000" stroke="#000000" points="1409.6197,-166.5001 1419.6196,-163 1409.6196,-159.5001 1409.6197,-166.5001"/>
</g>
<!-- CartServerService -->
<g id="node13" class="node">
<title>CartServerService</title>
<ellipse fill="#fdb462" stroke="#000000" cx="783" cy="-104" rx="81.6346" ry="18"/>
<text text-anchor="middle" x="783" y="-99.8" font-family="Times,serif" font-size="14.00" fill="#000000">CartServerService</text>
</g>
<!-- CartServerService&#45;&gt;CoreModule -->
<g id="edge13" class="edge">
<title>CartServerService&#45;&gt;CoreModule</title>
<path fill="none" stroke="#000000" d="M783,-122.2222C783,-140.8285 783,-167 783,-167 783,-167 1409.6881,-167 1409.6881,-167"/>
<polygon fill="#000000" stroke="#000000" points="1409.6882,-170.5001 1419.6881,-167 1409.6881,-163.5001 1409.6882,-170.5001"/>
</g>
<!-- CheckoutService -->
<g id="node14" class="node">
<title>CheckoutService</title>
<ellipse fill="#fdb462" stroke="#000000" cx="606" cy="-104" rx="77.0062" ry="18"/>
<text text-anchor="middle" x="606" y="-99.8" font-family="Times,serif" font-size="14.00" fill="#000000">CheckoutService</text>
</g>
<!-- CheckoutService&#45;&gt;CoreModule -->
<g id="edge14" class="edge">
<title>CheckoutService&#45;&gt;CoreModule</title>
<path fill="none" stroke="#000000" d="M606,-122.308C606,-142.1455 606,-171 606,-171 606,-171 1409.6189,-171 1409.6189,-171"/>
<polygon fill="#000000" stroke="#000000" points="1409.619,-174.5001 1419.6189,-171 1409.6189,-167.5001 1409.619,-174.5001"/>
</g>
<!-- OrderService -->
<g id="node15" class="node">
<title>OrderService</title>
<ellipse fill="#fdb462" stroke="#000000" cx="448" cy="-104" rx="62.516" ry="18"/>
<text text-anchor="middle" x="448" y="-99.8" font-family="Times,serif" font-size="14.00" fill="#000000">OrderService</text>
</g>
<!-- OrderService&#45;&gt;CoreModule -->
<g id="edge15" class="edge">
<title>OrderService&#45;&gt;CoreModule</title>
<path fill="none" stroke="#000000" d="M448,-122.2843C448,-143.3211 448,-175 448,-175 448,-175 1409.7114,-175 1409.7114,-175"/>
<polygon fill="#000000" stroke="#000000" points="1409.7115,-178.5001 1419.7114,-175 1409.7114,-171.5001 1409.7115,-178.5001"/>
</g>
<!-- PdfGenerateService -->
<g id="node16" class="node">
<title>PdfGenerateService</title>
<ellipse fill="#fdb462" stroke="#000000" cx="279" cy="-104" rx="88.4979" ry="18"/>
<text text-anchor="middle" x="279" y="-99.8" font-family="Times,serif" font-size="14.00" fill="#000000">PdfGenerateService</text>
</g>
<!-- PdfGenerateService&#45;&gt;CoreModule -->
<g id="edge16" class="edge">
<title>PdfGenerateService&#45;&gt;CoreModule</title>
<path fill="none" stroke="#000000" d="M279,-122.1554C279,-144.3519 279,-179 279,-179 279,-179 1409.4566,-179 1409.4566,-179"/>
<polygon fill="#000000" stroke="#000000" points="1409.4567,-182.5001 1419.4566,-179 1409.4566,-175.5001 1409.4567,-182.5001"/>
</g>
<!-- LocationService -->
<g id="node17" class="node">
<title>LocationService</title>
<ellipse fill="#fdb462" stroke="#000000" cx="98" cy="-104" rx="74.1354" ry="18"/>
<text text-anchor="middle" x="98" y="-99.8" font-family="Times,serif" font-size="14.00" fill="#000000">LocationService</text>
</g>
<!-- LocationService&#45;&gt;CoreModule -->
<g id="edge17" class="edge">
<title>LocationService&#45;&gt;CoreModule</title>
<path fill="none" stroke="#000000" d="M98,-122.3228C98,-145.6602 98,-183 98,-183 98,-183 1409.5127,-183 1409.5127,-183"/>
<polygon fill="#000000" stroke="#000000" points="1409.5127,-186.5001 1419.5127,-183 1409.5126,-179.5001 1409.5127,-186.5001"/>
</g>
</g>
</svg>
