<?xml version="1.0" encoding="UTF-8" standalone="no"?>
<!DOCTYPE svg PUBLIC "-//W3C//DTD SVG 1.1//EN"
 "http://www.w3.org/Graphics/SVG/1.1/DTD/svg11.dtd">
<!-- Generated by graphviz version 2.40.1 (20161225.0304)
 -->
<!-- Title: dependencies Pages: 1 -->
<svg width="2234pt" height="211pt"
 viewBox="0.00 0.00 2234.00 211.00" xmlns="http://www.w3.org/2000/svg" xmlns:xlink="http://www.w3.org/1999/xlink">
<g id="graph0" class="graph" transform="scale(1 1) rotate(0) translate(4 207)">
<title>dependencies</title>
<polygon fill="#ffffff" stroke="transparent" points="-4,4 -4,-207 2230,-207 2230,4 -4,4"/>
<text text-anchor="start" x="1092.0091" y="-42.4" font-family="sans-serif" font-weight="bold" font-size="14.00" fill="#000000">Legend</text>
<polygon fill="#ffffb3" stroke="transparent" points="879,-10 879,-30 899,-30 899,-10 879,-10"/>
<text text-anchor="start" x="902.629" y="-15.4" font-family="sans-serif" font-size="14.00" fill="#000000"> &#160;Declarations</text>
<polygon fill="#8dd3c7" stroke="transparent" points="992,-10 992,-30 1012,-30 1012,-10 992,-10"/>
<text text-anchor="start" x="1015.7251" y="-15.4" font-family="sans-serif" font-size="14.00" fill="#000000"> &#160;Module</text>
<polygon fill="#80b1d3" stroke="transparent" points="1078,-10 1078,-30 1098,-30 1098,-10 1078,-10"/>
<text text-anchor="start" x="1101.7812" y="-15.4" font-family="sans-serif" font-size="14.00" fill="#000000"> &#160;Bootstrap</text>
<polygon fill="#fdb462" stroke="transparent" points="1175,-10 1175,-30 1195,-30 1195,-10 1175,-10"/>
<text text-anchor="start" x="1198.6732" y="-15.4" font-family="sans-serif" font-size="14.00" fill="#000000"> &#160;Providers</text>
<polygon fill="#fb8072" stroke="transparent" points="1271,-10 1271,-30 1291,-30 1291,-10 1271,-10"/>
<text text-anchor="start" x="1294.7258" y="-15.4" font-family="sans-serif" font-size="14.00" fill="#000000"> &#160;Exports</text>
<g id="clust1" class="cluster">
<title>cluster_CoreModule</title>
<polygon fill="none" stroke="#000000" stroke-dasharray="1,5" points="8,-70 8,-195 2218,-195 2218,-70 8,-70"/>
</g>
<g id="clust6" class="cluster">
<title>cluster_CoreModule_providers</title>
<polygon fill="none" stroke="#000000" points="16,-78 16,-130 2210,-130 2210,-78 16,-78"/>
</g>
<!-- CartService -->
<g id="node1" class="node">
<title>CartService</title>
<ellipse fill="#fdb462" stroke="#000000" cx="2145" cy="-104" rx="56.7348" ry="18"/>
<text text-anchor="middle" x="2145" y="-99.8" font-family="Times,serif" font-size="14.00" fill="#000000">CartService</text>
</g>
<!-- CoreModule -->
<g id="node14" class="node">
<title>CoreModule</title>
<polygon fill="#8dd3c7" stroke="#000000" points="1190.2619,-187 1187.2619,-191 1166.2619,-191 1163.2619,-187 1103.7381,-187 1103.7381,-151 1190.2619,-151 1190.2619,-187"/>
<text text-anchor="middle" x="1147" y="-164.8" font-family="Times,serif" font-size="14.00" fill="#000000">CoreModule</text>
</g>
<!-- CartService&#45;&gt;CoreModule -->
<g id="edge1" class="edge">
<title>CartService&#45;&gt;CoreModule</title>
<path fill="none" stroke="#000000" d="M2145,-122.0908C2145,-145.1328 2145,-182 2145,-182 2145,-182 1200.5245,-182 1200.5245,-182"/>
<polygon fill="#000000" stroke="#000000" points="1200.5246,-178.5001 1190.5245,-182 1200.5245,-185.5001 1200.5246,-178.5001"/>
</g>
<!-- AuthServiceLocal -->
<g id="node2" class="node">
<title>AuthServiceLocal</title>
<ellipse fill="#fdb462" stroke="#000000" cx="1989" cy="-104" rx="81.0782" ry="18"/>
<text text-anchor="middle" x="1989" y="-99.8" font-family="Times,serif" font-size="14.00" fill="#000000">AuthServiceLocal</text>
</g>
<!-- AuthServiceLocal&#45;&gt;CoreModule -->
<g id="edge2" class="edge">
<title>AuthServiceLocal&#45;&gt;CoreModule</title>
<path fill="none" stroke="#000000" d="M1989,-122.0449C1989,-143.6623 1989,-177 1989,-177 1989,-177 1200.4965,-177 1200.4965,-177"/>
<polygon fill="#000000" stroke="#000000" points="1200.4966,-173.5001 1190.4965,-177 1200.4965,-180.5001 1200.4966,-173.5001"/>
</g>
<!-- UserService -->
<g id="node3" class="node">
<title>UserService</title>
<ellipse fill="#fdb462" stroke="#000000" cx="1831" cy="-104" rx="58.4415" ry="18"/>
<text text-anchor="middle" x="1831" y="-99.8" font-family="Times,serif" font-size="14.00" fill="#000000">UserService</text>
</g>
<!-- UserService&#45;&gt;CoreModule -->
<g id="edge3" class="edge">
<title>UserService&#45;&gt;CoreModule</title>
<path fill="none" stroke="#000000" d="M1831,-122.2228C1831,-142.3652 1831,-172 1831,-172 1831,-172 1200.3062,-172 1200.3062,-172"/>
<polygon fill="#000000" stroke="#000000" points="1200.3062,-168.5001 1190.3062,-172 1200.3061,-175.5001 1200.3062,-168.5001"/>
</g>
<!-- AddressService -->
<g id="node4" class="node">
<title>AddressService</title>
<ellipse fill="#fdb462" stroke="#000000" cx="1683" cy="-104" rx="71.766" ry="18"/>
<text text-anchor="middle" x="1683" y="-99.8" font-family="Times,serif" font-size="14.00" fill="#000000">AddressService</text>
</g>
<!-- AddressService&#45;&gt;CoreModule -->
<g id="edge4" class="edge">
<title>AddressService&#45;&gt;CoreModule</title>
<path fill="none" stroke="#000000" d="M1683,-122.2222C1683,-140.8285 1683,-167 1683,-167 1683,-167 1200.4091,-167 1200.4091,-167"/>
<polygon fill="#000000" stroke="#000000" points="1200.4091,-163.5001 1190.4091,-167 1200.4091,-170.5001 1200.4091,-163.5001"/>
</g>
<!-- AuthGuard -->
<g id="node5" class="node">
<title>AuthGuard</title>
<ellipse fill="#fdb462" stroke="#000000" cx="1539" cy="-104" rx="54.4566" ry="18"/>
<text text-anchor="middle" x="1539" y="-99.8" font-family="Times,serif" font-size="14.00" fill="#000000">AuthGuard</text>
</g>
<!-- AuthGuard&#45;&gt;CoreModule -->
<g id="edge5" class="edge">
<title>AuthGuard&#45;&gt;CoreModule</title>
<path fill="none" stroke="#000000" d="M1539,-122.0336C1539,-139.0597 1539,-162 1539,-162 1539,-162 1200.4486,-162 1200.4486,-162"/>
<polygon fill="#000000" stroke="#000000" points="1200.4486,-158.5001 1190.4486,-162 1200.4486,-165.5001 1200.4486,-158.5001"/>
</g>
<!-- ProductCategoryService -->
<g id="node6" class="node">
<title>ProductCategoryService</title>
<ellipse fill="#fdb462" stroke="#000000" cx="1361" cy="-104" rx="105.3567" ry="18"/>
<text text-anchor="middle" x="1361" y="-99.8" font-family="Times,serif" font-size="14.00" fill="#000000">ProductCategoryService</text>
</g>
<!-- ProductCategoryService&#45;&gt;CoreModule -->
<g id="edge6" class="edge">
<title>ProductCategoryService&#45;&gt;CoreModule</title>
<path fill="none" stroke="#000000" d="M1361,-122.2396C1361,-137.5706 1361,-157 1361,-157 1361,-157 1200.3061,-157 1200.3061,-157"/>
<polygon fill="#000000" stroke="#000000" points="1200.3061,-153.5001 1190.3061,-157 1200.3061,-160.5001 1200.3061,-153.5001"/>
</g>
<!-- ProductFilterService -->
<g id="node7" class="node">
<title>ProductFilterService</title>
<ellipse fill="#fdb462" stroke="#000000" cx="1147" cy="-104" rx="90.9032" ry="18"/>
<text text-anchor="middle" x="1147" y="-99.8" font-family="Times,serif" font-size="14.00" fill="#000000">ProductFilterService</text>
</g>
<!-- ProductFilterService&#45;&gt;CoreModule -->
<g id="edge7" class="edge">
<title>ProductFilterService&#45;&gt;CoreModule</title>
<path fill="none" stroke="#000000" d="M1147,-122.1061C1147,-122.1061 1147,-140.991 1147,-140.991"/>
<polygon fill="#000000" stroke="#000000" points="1143.5001,-140.9909 1147,-150.991 1150.5001,-140.991 1143.5001,-140.9909"/>
</g>
<!-- ProductSortService -->
<g id="node8" class="node">
<title>ProductSortService</title>
<ellipse fill="#fdb462" stroke="#000000" cx="952" cy="-104" rx="86.2522" ry="18"/>
<text text-anchor="middle" x="952" y="-99.8" font-family="Times,serif" font-size="14.00" fill="#000000">ProductSortService</text>
</g>
<!-- ProductSortService&#45;&gt;CoreModule -->
<g id="edge8" class="edge">
<title>ProductSortService&#45;&gt;CoreModule</title>
<path fill="none" stroke="#000000" d="M952,-122.2396C952,-137.5706 952,-157 952,-157 952,-157 1093.7232,-157 1093.7232,-157"/>
<polygon fill="#000000" stroke="#000000" points="1093.7232,-160.5001 1103.7232,-157 1093.7231,-153.5001 1093.7232,-160.5001"/>
</g>
<!-- ColorService -->
<g id="node9" class="node">
<title>ColorService</title>
<ellipse fill="#fdb462" stroke="#000000" cx="786" cy="-104" rx="61.975" ry="18"/>
<text text-anchor="middle" x="786" y="-99.8" font-family="Times,serif" font-size="14.00" fill="#000000">ColorService</text>
</g>
<!-- ColorService&#45;&gt;CoreModule -->
<g id="edge9" class="edge">
<title>ColorService&#45;&gt;CoreModule</title>
<path fill="none" stroke="#000000" d="M786,-122.0336C786,-139.0597 786,-162 786,-162 786,-162 1093.455,-162 1093.455,-162"/>
<polygon fill="#000000" stroke="#000000" points="1093.455,-165.5001 1103.455,-162 1093.4549,-158.5001 1093.455,-165.5001"/>
</g>
<!-- ProductSearchService -->
<g id="node10" class="node">
<title>ProductSearchService</title>
<ellipse fill="#fdb462" stroke="#000000" cx="610" cy="-104" rx="96.1054" ry="18"/>
<text text-anchor="middle" x="610" y="-99.8" font-family="Times,serif" font-size="14.00" fill="#000000">ProductSearchService</text>
</g>
<!-- ProductSearchService&#45;&gt;CoreModule -->
<g id="edge10" class="edge">
<title>ProductSearchService&#45;&gt;CoreModule</title>
<path fill="none" stroke="#000000" d="M610,-122.2222C610,-140.8285 610,-167 610,-167 610,-167 1093.5099,-167 1093.5099,-167"/>
<polygon fill="#000000" stroke="#000000" points="1093.5099,-170.5001 1103.5099,-167 1093.5099,-163.5001 1093.5099,-170.5001"/>
</g>
<!-- ProductService -->
<g id="node11" class="node">
<title>ProductService</title>
<ellipse fill="#fdb462" stroke="#000000" cx="426" cy="-104" rx="70.0616" ry="18"/>
<text text-anchor="middle" x="426" y="-99.8" font-family="Times,serif" font-size="14.00" fill="#000000">ProductService</text>
</g>
<!-- ProductService&#45;&gt;CoreModule -->
<g id="edge11" class="edge">
<title>ProductService&#45;&gt;CoreModule</title>
<path fill="none" stroke="#000000" d="M426,-122.2228C426,-142.3652 426,-172 426,-172 426,-172 1093.5219,-172 1093.5219,-172"/>
<polygon fill="#000000" stroke="#000000" points="1093.5219,-175.5001 1103.5219,-172 1093.5219,-168.5001 1093.5219,-175.5001"/>
</g>
<!-- RatingService -->
<g id="node12" class="node">
<title>RatingService</title>
<ellipse fill="#fdb462" stroke="#000000" cx="272" cy="-104" rx="65.9871" ry="18"/>
<text text-anchor="middle" x="272" y="-99.8" font-family="Times,serif" font-size="14.00" fill="#000000">RatingService</text>
</g>
<!-- RatingService&#45;&gt;CoreModule -->
<g id="edge12" class="edge">
<title>RatingService&#45;&gt;CoreModule</title>
<path fill="none" stroke="#000000" d="M272,-122.0449C272,-143.6623 272,-177 272,-177 272,-177 1093.6086,-177 1093.6086,-177"/>
<polygon fill="#000000" stroke="#000000" points="1093.6086,-180.5001 1103.6086,-177 1093.6086,-173.5001 1093.6086,-180.5001"/>
</g>
<!-- CartServerService -->
<g id="node13" class="node">
<title>CartServerService</title>
<ellipse fill="#fdb462" stroke="#000000" cx="106" cy="-104" rx="81.6346" ry="18"/>
<text text-anchor="middle" x="106" y="-99.8" font-family="Times,serif" font-size="14.00" fill="#000000">CartServerService</text>
</g>
<!-- CartServerService&#45;&gt;CoreModule -->
<g id="edge13" class="edge">
<title>CartServerService&#45;&gt;CoreModule</title>
<path fill="none" stroke="#000000" d="M106,-122.0908C106,-145.1328 106,-182 106,-182 106,-182 1093.5949,-182 1093.5949,-182"/>
<polygon fill="#000000" stroke="#000000" points="1093.5949,-185.5001 1103.5949,-182 1093.5948,-178.5001 1093.5949,-185.5001"/>
</g>
</g>
</svg>
