<?xml version="1.0" encoding="UTF-8" standalone="no"?>
<!DOCTYPE svg PUBLIC "-//W3C//DTD SVG 1.1//EN"
 "http://www.w3.org/Graphics/SVG/1.1/DTD/svg11.dtd">
<!-- Generated by graphviz version 2.40.1 (20161225.0304)
 -->
<!-- Title: dependencies Pages: 1 -->
<svg width="1019pt" height="284pt"
 viewBox="0.00 0.00 1019.00 284.00" xmlns="http://www.w3.org/2000/svg" xmlns:xlink="http://www.w3.org/1999/xlink">
<g id="graph0" class="graph" transform="scale(1 1) rotate(0) translate(4 280)">
<title>dependencies</title>
<polygon fill="#ffffff" stroke="transparent" points="-4,4 -4,-280 1015,-280 1015,4 -4,4"/>
<text text-anchor="start" x="484.5091" y="-42.4" font-family="sans-serif" font-weight="bold" font-size="14.00" fill="#000000">Legend</text>
<polygon fill="#ffffb3" stroke="transparent" points="271.5,-10 271.5,-30 291.5,-30 291.5,-10 271.5,-10"/>
<text text-anchor="start" x="295.129" y="-15.4" font-family="sans-serif" font-size="14.00" fill="#000000"> &#160;Declarations</text>
<polygon fill="#8dd3c7" stroke="transparent" points="384.5,-10 384.5,-30 404.5,-30 404.5,-10 384.5,-10"/>
<text text-anchor="start" x="408.2251" y="-15.4" font-family="sans-serif" font-size="14.00" fill="#000000"> &#160;Module</text>
<polygon fill="#80b1d3" stroke="transparent" points="470.5,-10 470.5,-30 490.5,-30 490.5,-10 470.5,-10"/>
<text text-anchor="start" x="494.2812" y="-15.4" font-family="sans-serif" font-size="14.00" fill="#000000"> &#160;Bootstrap</text>
<polygon fill="#fdb462" stroke="transparent" points="567.5,-10 567.5,-30 587.5,-30 587.5,-10 567.5,-10"/>
<text text-anchor="start" x="591.1732" y="-15.4" font-family="sans-serif" font-size="14.00" fill="#000000"> &#160;Providers</text>
<polygon fill="#fb8072" stroke="transparent" points="663.5,-10 663.5,-30 683.5,-30 683.5,-10 663.5,-10"/>
<text text-anchor="start" x="687.2258" y="-15.4" font-family="sans-serif" font-size="14.00" fill="#000000"> &#160;Exports</text>
<g id="clust1" class="cluster">
<title>cluster_SharedModule</title>
<polygon fill="none" stroke="#000000" stroke-dasharray="1,5" points="8,-70 8,-268 1003,-268 1003,-70 8,-70"/>
</g>
<g id="clust2" class="cluster">
<title>cluster_SharedModule_declarations</title>
<polygon fill="none" stroke="#000000" points="16,-78 16,-130 995,-130 995,-78 16,-78"/>
</g>
<g id="clust10" class="cluster">
<title>cluster_SharedModule_exports</title>
<polygon fill="none" stroke="#000000" points="223,-208 223,-260 768,-260 768,-208 223,-208"/>
</g>
<!-- PageNotFoundComponent -->
<g id="node1" class="node">
<title>PageNotFoundComponent</title>
<polygon fill="#ffffb3" stroke="#000000" points="986.8243,-122 821.1757,-122 821.1757,-86 986.8243,-86 986.8243,-122"/>
<text text-anchor="middle" x="904" y="-99.8" font-family="Times,serif" font-size="14.00" fill="#000000">PageNotFoundComponent</text>
</g>
<!-- SharedModule -->
<g id="node7" class="node">
<title>SharedModule</title>
<polygon fill="#8dd3c7" stroke="#000000" points="549.4231,-187 546.4231,-191 525.4231,-191 522.4231,-187 450.5769,-187 450.5769,-151 549.4231,-151 549.4231,-187"/>
<text text-anchor="middle" x="500" y="-164.8" font-family="Times,serif" font-size="14.00" fill="#000000">SharedModule</text>
</g>
<!-- PageNotFoundComponent&#45;&gt;SharedModule -->
<g id="edge1" class="edge">
<title>PageNotFoundComponent&#45;&gt;SharedModule</title>
<path fill="none" stroke="#000000" d="M904,-122.1061C904,-141.3391 904,-169 904,-169 904,-169 559.5383,-169 559.5383,-169"/>
<polygon fill="#000000" stroke="#000000" points="559.5384,-165.5001 549.5383,-169 559.5383,-172.5001 559.5384,-165.5001"/>
</g>
<!-- SharedComponent -->
<g id="node2" class="node">
<title>SharedComponent</title>
<polygon fill="#ffffb3" stroke="#000000" points="803.205,-122 682.795,-122 682.795,-86 803.205,-86 803.205,-122"/>
<text text-anchor="middle" x="743" y="-99.8" font-family="Times,serif" font-size="14.00" fill="#000000">SharedComponent</text>
</g>
<!-- SharedComponent&#45;&gt;SharedModule -->
<g id="edge2" class="edge">
<title>SharedComponent&#45;&gt;SharedModule</title>
<path fill="none" stroke="#000000" d="M721.226,-122.027C721.226,-138.3976 721.226,-160 721.226,-160 721.226,-160 559.3721,-160 559.3721,-160"/>
<polygon fill="#000000" stroke="#000000" points="559.3721,-156.5001 549.3721,-160 559.372,-163.5001 559.3721,-156.5001"/>
</g>
<!-- EqualValidatorDirective -->
<g id="node3" class="node">
<title>EqualValidatorDirective</title>
<polygon fill="#ffffb3" stroke="#000000" points="664.6093,-122 511.3907,-122 511.3907,-86 664.6093,-86 664.6093,-122"/>
<text text-anchor="middle" x="588" y="-99.8" font-family="Times,serif" font-size="14.00" fill="#000000">EqualValidatorDirective</text>
</g>
<!-- EqualValidatorDirective&#45;&gt;SharedModule -->
<g id="edge3" class="edge">
<title>EqualValidatorDirective&#45;&gt;SharedModule</title>
<path fill="none" stroke="#000000" d="M530.2034,-122.1061C530.2034,-122.1061 530.2034,-140.991 530.2034,-140.991"/>
<polygon fill="#000000" stroke="#000000" points="526.7034,-140.9909 530.2034,-150.991 533.7034,-140.991 526.7034,-140.9909"/>
</g>
<!-- ProductSearchComponent -->
<g id="node4" class="node">
<title>ProductSearchComponent</title>
<polygon fill="#ffffb3" stroke="#000000" points="493.4678,-122 330.5322,-122 330.5322,-86 493.4678,-86 493.4678,-122"/>
<text text-anchor="middle" x="412" y="-99.8" font-family="Times,serif" font-size="14.00" fill="#000000">ProductSearchComponent</text>
</g>
<!-- ProductSearchComponent&#45;&gt;SharedModule -->
<g id="edge4" class="edge">
<title>ProductSearchComponent&#45;&gt;SharedModule</title>
<path fill="none" stroke="#000000" d="M472.1364,-122.1061C472.1364,-122.1061 472.1364,-140.991 472.1364,-140.991"/>
<polygon fill="#000000" stroke="#000000" points="468.6365,-140.9909 472.1364,-150.991 475.6365,-140.991 468.6365,-140.9909"/>
</g>
<!-- ThankyouComponent -->
<g id="node5" class="node">
<title>ThankyouComponent</title>
<polygon fill="#ffffb3" stroke="#000000" points="312.0996,-122 173.9004,-122 173.9004,-86 312.0996,-86 312.0996,-122"/>
<text text-anchor="middle" x="243" y="-99.8" font-family="Times,serif" font-size="14.00" fill="#000000">ThankyouComponent</text>
</g>
<!-- ThankyouComponent&#45;&gt;SharedModule -->
<g id="edge5" class="edge">
<title>ThankyouComponent&#45;&gt;SharedModule</title>
<path fill="none" stroke="#000000" d="M271.408,-122.027C271.408,-138.3976 271.408,-160 271.408,-160 271.408,-160 440.6804,-160 440.6804,-160"/>
<polygon fill="#000000" stroke="#000000" points="440.6804,-163.5001 450.6804,-160 440.6803,-156.5001 440.6804,-163.5001"/>
</g>
<!-- LocationComponent -->
<g id="node6" class="node">
<title>LocationComponent</title>
<polygon fill="#ffffb3" stroke="#000000" points="155.5954,-122 24.4046,-122 24.4046,-86 155.5954,-86 155.5954,-122"/>
<text text-anchor="middle" x="90" y="-99.8" font-family="Times,serif" font-size="14.00" fill="#000000">LocationComponent</text>
</g>
<!-- LocationComponent&#45;&gt;SharedModule -->
<g id="edge6" class="edge">
<title>LocationComponent&#45;&gt;SharedModule</title>
<path fill="none" stroke="#000000" d="M90,-122.1061C90,-141.3391 90,-169 90,-169 90,-169 440.5444,-169 440.5444,-169"/>
<polygon fill="#000000" stroke="#000000" points="440.5445,-172.5001 450.5444,-169 440.5444,-165.5001 440.5445,-172.5001"/>
</g>
<!-- EqualValidatorDirective  -->
<g id="node8" class="node">
<title>EqualValidatorDirective </title>
<polygon fill="#fb8072" stroke="#000000" points="759.6088,-252 602.3912,-252 602.3912,-216 759.6088,-216 759.6088,-252"/>
<text text-anchor="middle" x="681" y="-229.8" font-family="Times,serif" font-size="14.00" fill="#000000">EqualValidatorDirective </text>
</g>
<!-- SharedModule&#45;&gt;EqualValidatorDirective  -->
<g id="edge7" class="edge">
<title>SharedModule&#45;&gt;EqualValidatorDirective </title>
<path fill="none" stroke="#000000" stroke-dasharray="5,2" d="M549.3774,-178C587.4421,-178 633.625,-178 633.625,-178 633.625,-178 633.625,-205.973 633.625,-205.973"/>
<polygon fill="#000000" stroke="#000000" points="630.1251,-205.973 633.625,-215.973 637.1251,-205.973 630.1251,-205.973"/>
</g>
<!-- PageNotFoundComponent  -->
<g id="node9" class="node">
<title>PageNotFoundComponent </title>
<polygon fill="#fb8072" stroke="#000000" points="584.3241,-252 415.6759,-252 415.6759,-216 584.3241,-216 584.3241,-252"/>
<text text-anchor="middle" x="500" y="-229.8" font-family="Times,serif" font-size="14.00" fill="#000000">PageNotFoundComponent </text>
</g>
<!-- SharedModule&#45;&gt;PageNotFoundComponent  -->
<g id="edge8" class="edge">
<title>SharedModule&#45;&gt;PageNotFoundComponent </title>
<path fill="none" stroke="#000000" stroke-dasharray="5,2" d="M500,-187.1061C500,-187.1061 500,-205.991 500,-205.991"/>
<polygon fill="#000000" stroke="#000000" points="496.5001,-205.9909 500,-215.991 503.5001,-205.991 496.5001,-205.9909"/>
</g>
<!-- ProductSearchComponent  -->
<g id="node10" class="node">
<title>ProductSearchComponent </title>
<polygon fill="#fb8072" stroke="#000000" points="397.4685,-252 230.5315,-252 230.5315,-216 397.4685,-216 397.4685,-252"/>
<text text-anchor="middle" x="314" y="-229.8" font-family="Times,serif" font-size="14.00" fill="#000000">ProductSearchComponent </text>
</g>
<!-- SharedModule&#45;&gt;ProductSearchComponent  -->
<g id="edge9" class="edge">
<title>SharedModule&#45;&gt;ProductSearchComponent </title>
<path fill="none" stroke="#000000" stroke-dasharray="5,2" d="M450.4707,-178C411.5492,-178 363.875,-178 363.875,-178 363.875,-178 363.875,-205.973 363.875,-205.973"/>
<polygon fill="#000000" stroke="#000000" points="360.3751,-205.973 363.875,-215.973 367.3751,-205.973 360.3751,-205.973"/>
</g>
</g>
</svg>
