<?xml version="1.0" encoding="UTF-8" standalone="no"?>
<!DOCTYPE svg PUBLIC "-//W3C//DTD SVG 1.1//EN"
 "http://www.w3.org/Graphics/SVG/1.1/DTD/svg11.dtd">
<!-- Generated by graphviz version 2.40.1 (20161225.0304)
 -->
<!-- Title: dependencies Pages: 1 -->
<svg width="712pt" height="284pt"
 viewBox="0.00 0.00 712.00 284.00" xmlns="http://www.w3.org/2000/svg" xmlns:xlink="http://www.w3.org/1999/xlink">
<g id="graph0" class="graph" transform="scale(1 1) rotate(0) translate(4 280)">
<title>dependencies</title>
<polygon fill="#ffffff" stroke="transparent" points="-4,4 -4,-280 708,-280 708,4 -4,4"/>
<text text-anchor="start" x="331.0091" y="-42.4" font-family="sans-serif" font-weight="bold" font-size="14.00" fill="#000000">Legend</text>
<polygon fill="#ffffb3" stroke="transparent" points="118,-10 118,-30 138,-30 138,-10 118,-10"/>
<text text-anchor="start" x="141.629" y="-15.4" font-family="sans-serif" font-size="14.00" fill="#000000"> &#160;Declarations</text>
<polygon fill="#8dd3c7" stroke="transparent" points="231,-10 231,-30 251,-30 251,-10 231,-10"/>
<text text-anchor="start" x="254.7251" y="-15.4" font-family="sans-serif" font-size="14.00" fill="#000000"> &#160;Module</text>
<polygon fill="#80b1d3" stroke="transparent" points="317,-10 317,-30 337,-30 337,-10 317,-10"/>
<text text-anchor="start" x="340.7812" y="-15.4" font-family="sans-serif" font-size="14.00" fill="#000000"> &#160;Bootstrap</text>
<polygon fill="#fdb462" stroke="transparent" points="414,-10 414,-30 434,-30 434,-10 414,-10"/>
<text text-anchor="start" x="437.6732" y="-15.4" font-family="sans-serif" font-size="14.00" fill="#000000"> &#160;Providers</text>
<polygon fill="#fb8072" stroke="transparent" points="510,-10 510,-30 530,-30 530,-10 510,-10"/>
<text text-anchor="start" x="533.7258" y="-15.4" font-family="sans-serif" font-size="14.00" fill="#000000"> &#160;Exports</text>
<g id="clust1" class="cluster">
<title>cluster_SharedModule</title>
<polygon fill="none" stroke="#000000" stroke-dasharray="1,5" points="8,-70 8,-268 696,-268 696,-70 8,-70"/>
</g>
<g id="clust2" class="cluster">
<title>cluster_SharedModule_declarations</title>
<polygon fill="none" stroke="#000000" points="16,-78 16,-130 688,-130 688,-78 16,-78"/>
</g>
<g id="clust8" class="cluster">
<title>cluster_SharedModule_exports</title>
<polygon fill="none" stroke="#000000" points="79,-208 79,-260 624,-260 624,-208 79,-208"/>
</g>
<!-- PageNotFoundComponent -->
<g id="node1" class="node">
<title>PageNotFoundComponent</title>
<polygon fill="#ffffb3" stroke="#000000" points="679.8243,-122 514.1757,-122 514.1757,-86 679.8243,-86 679.8243,-122"/>
<text text-anchor="middle" x="597" y="-99.8" font-family="Times,serif" font-size="14.00" fill="#000000">PageNotFoundComponent</text>
</g>
<!-- SharedModule -->
<g id="node5" class="node">
<title>SharedModule</title>
<polygon fill="#8dd3c7" stroke="#000000" points="405.4231,-187 402.4231,-191 381.4231,-191 378.4231,-187 306.5769,-187 306.5769,-151 405.4231,-151 405.4231,-187"/>
<text text-anchor="middle" x="356" y="-164.8" font-family="Times,serif" font-size="14.00" fill="#000000">SharedModule</text>
</g>
<!-- PageNotFoundComponent&#45;&gt;SharedModule -->
<g id="edge1" class="edge">
<title>PageNotFoundComponent&#45;&gt;SharedModule</title>
<path fill="none" stroke="#000000" d="M564.9462,-122.0225C564.9462,-139.3734 564.9462,-163 564.9462,-163 564.9462,-163 415.2527,-163 415.2527,-163"/>
<polygon fill="#000000" stroke="#000000" points="415.2528,-159.5001 405.2527,-163 415.2527,-166.5001 415.2528,-159.5001"/>
</g>
<!-- SharedComponent -->
<g id="node2" class="node">
<title>SharedComponent</title>
<polygon fill="#ffffb3" stroke="#000000" points="496.205,-122 375.795,-122 375.795,-86 496.205,-86 496.205,-122"/>
<text text-anchor="middle" x="436" y="-99.8" font-family="Times,serif" font-size="14.00" fill="#000000">SharedComponent</text>
</g>
<!-- SharedComponent&#45;&gt;SharedModule -->
<g id="edge2" class="edge">
<title>SharedComponent&#45;&gt;SharedModule</title>
<path fill="none" stroke="#000000" d="M390.5544,-122.1061C390.5544,-122.1061 390.5544,-140.991 390.5544,-140.991"/>
<polygon fill="#000000" stroke="#000000" points="387.0544,-140.9909 390.5544,-150.991 394.0544,-140.991 387.0544,-140.9909"/>
</g>
<!-- EqualValidatorDirective -->
<g id="node3" class="node">
<title>EqualValidatorDirective</title>
<polygon fill="#ffffb3" stroke="#000000" points="357.6093,-122 204.3907,-122 204.3907,-86 357.6093,-86 357.6093,-122"/>
<text text-anchor="middle" x="281" y="-99.8" font-family="Times,serif" font-size="14.00" fill="#000000">EqualValidatorDirective</text>
</g>
<!-- EqualValidatorDirective&#45;&gt;SharedModule -->
<g id="edge3" class="edge">
<title>EqualValidatorDirective&#45;&gt;SharedModule</title>
<path fill="none" stroke="#000000" d="M332.2967,-122.1061C332.2967,-122.1061 332.2967,-140.991 332.2967,-140.991"/>
<polygon fill="#000000" stroke="#000000" points="328.7967,-140.9909 332.2967,-150.991 335.7967,-140.991 328.7967,-140.9909"/>
</g>
<!-- ProductSearchComponent -->
<g id="node4" class="node">
<title>ProductSearchComponent</title>
<polygon fill="#ffffb3" stroke="#000000" points="186.4678,-122 23.5322,-122 23.5322,-86 186.4678,-86 186.4678,-122"/>
<text text-anchor="middle" x="105" y="-99.8" font-family="Times,serif" font-size="14.00" fill="#000000">ProductSearchComponent</text>
</g>
<!-- ProductSearchComponent&#45;&gt;SharedModule -->
<g id="edge4" class="edge">
<title>ProductSearchComponent&#45;&gt;SharedModule</title>
<path fill="none" stroke="#000000" d="M136.625,-122.0225C136.625,-139.3734 136.625,-163 136.625,-163 136.625,-163 296.768,-163 296.768,-163"/>
<polygon fill="#000000" stroke="#000000" points="296.768,-166.5001 306.768,-163 296.7679,-159.5001 296.768,-166.5001"/>
</g>
<!-- EqualValidatorDirective  -->
<g id="node6" class="node">
<title>EqualValidatorDirective </title>
<polygon fill="#fb8072" stroke="#000000" points="615.6088,-252 458.3912,-252 458.3912,-216 615.6088,-216 615.6088,-252"/>
<text text-anchor="middle" x="537" y="-229.8" font-family="Times,serif" font-size="14.00" fill="#000000">EqualValidatorDirective </text>
</g>
<!-- SharedModule&#45;&gt;EqualValidatorDirective  -->
<g id="edge5" class="edge">
<title>SharedModule&#45;&gt;EqualValidatorDirective </title>
<path fill="none" stroke="#000000" stroke-dasharray="5,2" d="M405.3268,-175C438.9021,-175 477.274,-175 477.274,-175 477.274,-175 477.274,-205.9775 477.274,-205.9775"/>
<polygon fill="#000000" stroke="#000000" points="473.7741,-205.9774 477.274,-215.9775 480.7741,-205.9775 473.7741,-205.9774"/>
</g>
<!-- PageNotFoundComponent  -->
<g id="node7" class="node">
<title>PageNotFoundComponent </title>
<polygon fill="#fb8072" stroke="#000000" points="440.3241,-252 271.6759,-252 271.6759,-216 440.3241,-216 440.3241,-252"/>
<text text-anchor="middle" x="356" y="-229.8" font-family="Times,serif" font-size="14.00" fill="#000000">PageNotFoundComponent </text>
</g>
<!-- SharedModule&#45;&gt;PageNotFoundComponent  -->
<g id="edge6" class="edge">
<title>SharedModule&#45;&gt;PageNotFoundComponent </title>
<path fill="none" stroke="#000000" stroke-dasharray="5,2" d="M356,-187.1061C356,-187.1061 356,-205.991 356,-205.991"/>
<polygon fill="#000000" stroke="#000000" points="352.5001,-205.9909 356,-215.991 359.5001,-205.991 352.5001,-205.9909"/>
</g>
<!-- ProductSearchComponent  -->
<g id="node8" class="node">
<title>ProductSearchComponent </title>
<polygon fill="#fb8072" stroke="#000000" points="253.4685,-252 86.5315,-252 86.5315,-216 253.4685,-216 253.4685,-252"/>
<text text-anchor="middle" x="170" y="-229.8" font-family="Times,serif" font-size="14.00" fill="#000000">ProductSearchComponent </text>
</g>
<!-- SharedModule&#45;&gt;ProductSearchComponent  -->
<g id="edge7" class="edge">
<title>SharedModule&#45;&gt;ProductSearchComponent </title>
<path fill="none" stroke="#000000" stroke-dasharray="5,2" d="M306.7882,-175C270.9701,-175 228.7148,-175 228.7148,-175 228.7148,-175 228.7148,-205.9775 228.7148,-205.9775"/>
<polygon fill="#000000" stroke="#000000" points="225.2148,-205.9774 228.7148,-215.9775 232.2148,-205.9775 225.2148,-205.9774"/>
</g>
</g>
</svg>
