<?xml version="1.0" encoding="UTF-8" standalone="no"?>
<!DOCTYPE svg PUBLIC "-//W3C//DTD SVG 1.1//EN"
 "http://www.w3.org/Graphics/SVG/1.1/DTD/svg11.dtd">
<!-- Generated by graphviz version 2.40.1 (20161225.0304)
 -->
<!-- Title: dependencies Pages: 1 -->
<svg width="768pt" height="211pt"
 viewBox="0.00 0.00 768.00 211.00" xmlns="http://www.w3.org/2000/svg" xmlns:xlink="http://www.w3.org/1999/xlink">
<g id="graph0" class="graph" transform="scale(1 1) rotate(0) translate(4 207)">
<title>dependencies</title>
<polygon fill="#ffffff" stroke="transparent" points="-4,4 -4,-207 764,-207 764,4 -4,4"/>
<text text-anchor="start" x="359.0091" y="-42.4" font-family="sans-serif" font-weight="bold" font-size="14.00" fill="#000000">Legend</text>
<polygon fill="#ffffb3" stroke="transparent" points="146,-10 146,-30 166,-30 166,-10 146,-10"/>
<text text-anchor="start" x="169.629" y="-15.4" font-family="sans-serif" font-size="14.00" fill="#000000"> &#160;Declarations</text>
<polygon fill="#8dd3c7" stroke="transparent" points="259,-10 259,-30 279,-30 279,-10 259,-10"/>
<text text-anchor="start" x="282.7251" y="-15.4" font-family="sans-serif" font-size="14.00" fill="#000000"> &#160;Module</text>
<polygon fill="#80b1d3" stroke="transparent" points="345,-10 345,-30 365,-30 365,-10 345,-10"/>
<text text-anchor="start" x="368.7812" y="-15.4" font-family="sans-serif" font-size="14.00" fill="#000000"> &#160;Bootstrap</text>
<polygon fill="#fdb462" stroke="transparent" points="442,-10 442,-30 462,-30 462,-10 442,-10"/>
<text text-anchor="start" x="465.6732" y="-15.4" font-family="sans-serif" font-size="14.00" fill="#000000"> &#160;Providers</text>
<polygon fill="#fb8072" stroke="transparent" points="538,-10 538,-30 558,-30 558,-10 538,-10"/>
<text text-anchor="start" x="561.7258" y="-15.4" font-family="sans-serif" font-size="14.00" fill="#000000"> &#160;Exports</text>
<g id="clust1" class="cluster">
<title>cluster_CheckoutModule</title>
<polygon fill="none" stroke="#000000" stroke-dasharray="1,5" points="8,-70 8,-195 752,-195 752,-70 8,-70"/>
</g>
<g id="clust2" class="cluster">
<title>cluster_CheckoutModule_declarations</title>
<polygon fill="none" stroke="#000000" points="300,-78 300,-130 744,-130 744,-78 300,-78"/>
</g>
<g id="clust6" class="cluster">
<title>cluster_CheckoutModule_imports</title>
<polygon fill="none" stroke="#000000" points="16,-78 16,-130 292,-130 292,-78 16,-78"/>
</g>
<!-- CheckoutComponent -->
<g id="node1" class="node">
<title>CheckoutComponent</title>
<polygon fill="#ffffb3" stroke="#000000" points="736.4888,-122 601.5112,-122 601.5112,-86 736.4888,-86 736.4888,-122"/>
<text text-anchor="middle" x="669" y="-99.8" font-family="Times,serif" font-size="14.00" fill="#000000">CheckoutComponent</text>
</g>
<!-- CheckoutModule -->
<g id="node4" class="node">
<title>CheckoutModule</title>
<polygon fill="#8dd3c7" stroke="#000000" points="429.7064,-187 426.7064,-191 405.7064,-191 402.7064,-187 316.2936,-187 316.2936,-151 429.7064,-151 429.7064,-187"/>
<text text-anchor="middle" x="373" y="-164.8" font-family="Times,serif" font-size="14.00" fill="#000000">CheckoutModule</text>
</g>
<!-- CheckoutComponent&#45;&gt;CheckoutModule -->
<g id="edge1" class="edge">
<title>CheckoutComponent&#45;&gt;CheckoutModule</title>
<path fill="none" stroke="#000000" d="M669,-122.2843C669,-143.3211 669,-175 669,-175 669,-175 439.7215,-175 439.7215,-175"/>
<polygon fill="#000000" stroke="#000000" points="439.7216,-171.5001 429.7215,-175 439.7215,-178.5001 439.7216,-171.5001"/>
</g>
<!-- AddressComponent -->
<g id="node2" class="node">
<title>AddressComponent</title>
<polygon fill="#ffffb3" stroke="#000000" points="583.7036,-122 456.2964,-122 456.2964,-86 583.7036,-86 583.7036,-122"/>
<text text-anchor="middle" x="520" y="-99.8" font-family="Times,serif" font-size="14.00" fill="#000000">AddressComponent</text>
</g>
<!-- AddressComponent&#45;&gt;CheckoutModule -->
<g id="edge2" class="edge">
<title>AddressComponent&#45;&gt;CheckoutModule</title>
<path fill="none" stroke="#000000" d="M520,-122.0225C520,-139.3734 520,-163 520,-163 520,-163 439.834,-163 439.834,-163"/>
<polygon fill="#000000" stroke="#000000" points="439.8341,-159.5001 429.834,-163 439.834,-166.5001 439.8341,-159.5001"/>
</g>
<!-- PaymentComponent -->
<g id="node3" class="node">
<title>PaymentComponent</title>
<polygon fill="#ffffb3" stroke="#000000" points="438.3258,-122 307.6742,-122 307.6742,-86 438.3258,-86 438.3258,-122"/>
<text text-anchor="middle" x="373" y="-99.8" font-family="Times,serif" font-size="14.00" fill="#000000">PaymentComponent</text>
</g>
<!-- PaymentComponent&#45;&gt;CheckoutModule -->
<g id="edge3" class="edge">
<title>PaymentComponent&#45;&gt;CheckoutModule</title>
<path fill="none" stroke="#000000" d="M373,-122.1061C373,-122.1061 373,-140.991 373,-140.991"/>
<polygon fill="#000000" stroke="#000000" points="369.5001,-140.9909 373,-150.991 376.5001,-140.991 369.5001,-140.9909"/>
</g>
<!-- CartModule -->
<g id="node5" class="node">
<title>CartModule</title>
<polygon fill="#8dd3c7" stroke="#000000" points="283.6529,-122 280.6529,-126 259.6529,-126 256.6529,-122 200.3471,-122 200.3471,-86 283.6529,-86 283.6529,-122"/>
<text text-anchor="middle" x="242" y="-99.8" font-family="Times,serif" font-size="14.00" fill="#000000">CartModule</text>
</g>
<!-- CartModule&#45;&gt;CheckoutModule -->
<g id="edge4" class="edge">
<title>CartModule&#45;&gt;CheckoutModule</title>
<path fill="none" stroke="#000000" d="M242,-122.0225C242,-139.3734 242,-163 242,-163 242,-163 306.3034,-163 306.3034,-163"/>
<polygon fill="#000000" stroke="#000000" points="306.3034,-166.5001 316.3034,-163 306.3034,-159.5001 306.3034,-166.5001"/>
</g>
<!-- CheckoutRoutingModule -->
<g id="node6" class="node">
<title>CheckoutRoutingModule</title>
<polygon fill="#8dd3c7" stroke="#000000" points="182.3243,-122 179.3243,-126 158.3243,-126 155.3243,-122 23.6757,-122 23.6757,-86 182.3243,-86 182.3243,-122"/>
<text text-anchor="middle" x="103" y="-99.8" font-family="Times,serif" font-size="14.00" fill="#000000">CheckoutRoutingModule</text>
</g>
<!-- CheckoutRoutingModule&#45;&gt;CheckoutModule -->
<g id="edge5" class="edge">
<title>CheckoutRoutingModule&#45;&gt;CheckoutModule</title>
<path fill="none" stroke="#000000" d="M103,-122.2843C103,-143.3211 103,-175 103,-175 103,-175 306.0699,-175 306.0699,-175"/>
<polygon fill="#000000" stroke="#000000" points="306.0699,-178.5001 316.0699,-175 306.0698,-171.5001 306.0699,-178.5001"/>
</g>
</g>
</svg>
