<?xml version="1.0" encoding="UTF-8" standalone="no"?>
<!DOCTYPE svg PUBLIC "-//W3C//DTD SVG 1.1//EN"
 "http://www.w3.org/Graphics/SVG/1.1/DTD/svg11.dtd">
<!-- Generated by graphviz version 2.40.1 (20161225.0304)
 -->
<!-- Title: dependencies Pages: 1 -->
<svg width="1253pt" height="211pt"
 viewBox="0.00 0.00 1253.00 211.00" xmlns="http://www.w3.org/2000/svg" xmlns:xlink="http://www.w3.org/1999/xlink">
<g id="graph0" class="graph" transform="scale(1 1) rotate(0) translate(4 207)">
<title>dependencies</title>
<polygon fill="#ffffff" stroke="transparent" points="-4,4 -4,-207 1249,-207 1249,4 -4,4"/>
<text text-anchor="start" x="601.5091" y="-42.4" font-family="sans-serif" font-weight="bold" font-size="14.00" fill="#000000">Legend</text>
<polygon fill="#ffffb3" stroke="transparent" points="388.5,-10 388.5,-30 408.5,-30 408.5,-10 388.5,-10"/>
<text text-anchor="start" x="412.129" y="-15.4" font-family="sans-serif" font-size="14.00" fill="#000000"> &#160;Declarations</text>
<polygon fill="#8dd3c7" stroke="transparent" points="501.5,-10 501.5,-30 521.5,-30 521.5,-10 501.5,-10"/>
<text text-anchor="start" x="525.2251" y="-15.4" font-family="sans-serif" font-size="14.00" fill="#000000"> &#160;Module</text>
<polygon fill="#80b1d3" stroke="transparent" points="587.5,-10 587.5,-30 607.5,-30 607.5,-10 587.5,-10"/>
<text text-anchor="start" x="611.2812" y="-15.4" font-family="sans-serif" font-size="14.00" fill="#000000"> &#160;Bootstrap</text>
<polygon fill="#fdb462" stroke="transparent" points="684.5,-10 684.5,-30 704.5,-30 704.5,-10 684.5,-10"/>
<text text-anchor="start" x="708.1732" y="-15.4" font-family="sans-serif" font-size="14.00" fill="#000000"> &#160;Providers</text>
<polygon fill="#fb8072" stroke="transparent" points="780.5,-10 780.5,-30 800.5,-30 800.5,-10 780.5,-10"/>
<text text-anchor="start" x="804.2258" y="-15.4" font-family="sans-serif" font-size="14.00" fill="#000000"> &#160;Exports</text>
<g id="clust1" class="cluster">
<title>cluster_UserModule</title>
<polygon fill="none" stroke="#000000" stroke-dasharray="1,5" points="8,-70 8,-195 1237,-195 1237,-70 8,-70"/>
</g>
<g id="clust2" class="cluster">
<title>cluster_UserModule_declarations</title>
<polygon fill="none" stroke="#000000" points="176,-78 176,-130 1229,-130 1229,-78 176,-78"/>
</g>
<g id="clust10" class="cluster">
<title>cluster_UserModule_imports</title>
<polygon fill="none" stroke="#000000" points="16,-78 16,-130 168,-130 168,-78 16,-78"/>
</g>
<!-- UserComponent -->
<g id="node1" class="node">
<title>UserComponent</title>
<polygon fill="#ffffb3" stroke="#000000" points="1220.7591,-122 1113.2409,-122 1113.2409,-86 1220.7591,-86 1220.7591,-122"/>
<text text-anchor="middle" x="1167" y="-99.8" font-family="Times,serif" font-size="14.00" fill="#000000">UserComponent</text>
</g>
<!-- UserModule -->
<g id="node8" class="node">
<title>UserModule</title>
<polygon fill="#8dd3c7" stroke="#000000" points="707.9762,-187 704.9762,-191 683.9762,-191 680.9762,-187 622.0238,-187 622.0238,-151 707.9762,-151 707.9762,-187"/>
<text text-anchor="middle" x="665" y="-164.8" font-family="Times,serif" font-size="14.00" fill="#000000">UserModule</text>
</g>
<!-- UserComponent&#45;&gt;UserModule -->
<g id="edge1" class="edge">
<title>UserComponent&#45;&gt;UserModule</title>
<path fill="none" stroke="#000000" d="M1167,-122.2921C1167,-144.2057 1167,-178 1167,-178 1167,-178 718.2347,-178 718.2347,-178"/>
<polygon fill="#000000" stroke="#000000" points="718.2348,-174.5001 708.2347,-178 718.2347,-181.5001 718.2348,-174.5001"/>
</g>
<!-- AddressesComponent -->
<g id="node2" class="node">
<title>AddressesComponent</title>
<polygon fill="#ffffb3" stroke="#000000" points="1095.3627,-122 956.6373,-122 956.6373,-86 1095.3627,-86 1095.3627,-122"/>
<text text-anchor="middle" x="1026" y="-99.8" font-family="Times,serif" font-size="14.00" fill="#000000">AddressesComponent</text>
</g>
<!-- AddressesComponent&#45;&gt;UserModule -->
<g id="edge2" class="edge">
<title>AddressesComponent&#45;&gt;UserModule</title>
<path fill="none" stroke="#000000" d="M1026,-122.1061C1026,-141.3391 1026,-169 1026,-169 1026,-169 718.1865,-169 718.1865,-169"/>
<polygon fill="#000000" stroke="#000000" points="718.1865,-165.5001 708.1865,-169 718.1864,-172.5001 718.1865,-165.5001"/>
</g>
<!-- OrdersComponent -->
<g id="node3" class="node">
<title>OrdersComponent</title>
<polygon fill="#ffffb3" stroke="#000000" points="938.9201,-122 819.0799,-122 819.0799,-86 938.9201,-86 938.9201,-122"/>
<text text-anchor="middle" x="879" y="-99.8" font-family="Times,serif" font-size="14.00" fill="#000000">OrdersComponent</text>
</g>
<!-- OrdersComponent&#45;&gt;UserModule -->
<g id="edge3" class="edge">
<title>OrdersComponent&#45;&gt;UserModule</title>
<path fill="none" stroke="#000000" d="M879,-122.027C879,-138.3976 879,-160 879,-160 879,-160 718.0487,-160 718.0487,-160"/>
<polygon fill="#000000" stroke="#000000" points="718.0487,-156.5001 708.0487,-160 718.0486,-163.5001 718.0487,-156.5001"/>
</g>
<!-- ProfileComponent -->
<g id="node4" class="node">
<title>ProfileComponent</title>
<polygon fill="#ffffb3" stroke="#000000" points="801.9328,-122 682.0672,-122 682.0672,-86 801.9328,-86 801.9328,-122"/>
<text text-anchor="middle" x="742" y="-99.8" font-family="Times,serif" font-size="14.00" fill="#000000">ProfileComponent</text>
</g>
<!-- ProfileComponent&#45;&gt;UserModule -->
<g id="edge4" class="edge">
<title>ProfileComponent&#45;&gt;UserModule</title>
<path fill="none" stroke="#000000" d="M695.1361,-122.1061C695.1361,-122.1061 695.1361,-140.991 695.1361,-140.991"/>
<polygon fill="#000000" stroke="#000000" points="691.6361,-140.9909 695.1361,-150.991 698.6361,-140.991 691.6361,-140.9909"/>
</g>
<!-- AddAddressComponent -->
<g id="node5" class="node">
<title>AddAddressComponent</title>
<polygon fill="#ffffb3" stroke="#000000" points="664.8103,-122 513.1897,-122 513.1897,-86 664.8103,-86 664.8103,-122"/>
<text text-anchor="middle" x="589" y="-99.8" font-family="Times,serif" font-size="14.00" fill="#000000">AddAddressComponent</text>
</g>
<!-- AddAddressComponent&#45;&gt;UserModule -->
<g id="edge5" class="edge">
<title>AddAddressComponent&#45;&gt;UserModule</title>
<path fill="none" stroke="#000000" d="M643.3335,-122.1061C643.3335,-122.1061 643.3335,-140.991 643.3335,-140.991"/>
<polygon fill="#000000" stroke="#000000" points="639.8335,-140.9909 643.3335,-150.991 646.8335,-140.991 639.8335,-140.9909"/>
</g>
<!-- EditAddressComponent -->
<g id="node6" class="node">
<title>EditAddressComponent</title>
<polygon fill="#ffffb3" stroke="#000000" points="495.0379,-122 344.9621,-122 344.9621,-86 495.0379,-86 495.0379,-122"/>
<text text-anchor="middle" x="420" y="-99.8" font-family="Times,serif" font-size="14.00" fill="#000000">EditAddressComponent</text>
</g>
<!-- EditAddressComponent&#45;&gt;UserModule -->
<g id="edge6" class="edge">
<title>EditAddressComponent&#45;&gt;UserModule</title>
<path fill="none" stroke="#000000" d="M420,-122.027C420,-138.3976 420,-160 420,-160 420,-160 611.7629,-160 611.7629,-160"/>
<polygon fill="#000000" stroke="#000000" points="611.7629,-163.5001 621.7629,-160 611.7629,-156.5001 611.7629,-163.5001"/>
</g>
<!-- EditProfileComponent -->
<g id="node7" class="node">
<title>EditProfileComponent</title>
<polygon fill="#ffffb3" stroke="#000000" points="326.266,-122 183.734,-122 183.734,-86 326.266,-86 326.266,-122"/>
<text text-anchor="middle" x="255" y="-99.8" font-family="Times,serif" font-size="14.00" fill="#000000">EditProfileComponent</text>
</g>
<!-- EditProfileComponent&#45;&gt;UserModule -->
<g id="edge7" class="edge">
<title>EditProfileComponent&#45;&gt;UserModule</title>
<path fill="none" stroke="#000000" d="M255,-122.1061C255,-141.3391 255,-169 255,-169 255,-169 611.8977,-169 611.8977,-169"/>
<polygon fill="#000000" stroke="#000000" points="611.8978,-172.5001 621.8977,-169 611.8977,-165.5001 611.8978,-172.5001"/>
</g>
<!-- UserRoutingModules -->
<g id="node9" class="node">
<title>UserRoutingModules</title>
<polygon fill="#8dd3c7" stroke="#000000" points="160.0394,-122 157.0394,-126 136.0394,-126 133.0394,-122 23.9606,-122 23.9606,-86 160.0394,-86 160.0394,-122"/>
<text text-anchor="middle" x="92" y="-99.8" font-family="Times,serif" font-size="14.00" fill="#000000">UserRoutingModules</text>
</g>
<!-- UserRoutingModules&#45;&gt;UserModule -->
<g id="edge8" class="edge">
<title>UserRoutingModules&#45;&gt;UserModule</title>
<path fill="none" stroke="#000000" d="M92,-122.2921C92,-144.2057 92,-178 92,-178 92,-178 611.9319,-178 611.9319,-178"/>
<polygon fill="#000000" stroke="#000000" points="611.9319,-181.5001 621.9319,-178 611.9318,-174.5001 611.9319,-181.5001"/>
</g>
</g>
</svg>
