<?xml version="1.0" encoding="UTF-8" standalone="no"?>
<!DOCTYPE svg PUBLIC "-//W3C//DTD SVG 1.1//EN"
 "http://www.w3.org/Graphics/SVG/1.1/DTD/svg11.dtd">
<!-- Generated by graphviz version 2.40.1 (20161225.0304)
 -->
<!-- Title: dependencies Pages: 1 -->
<svg width="997pt" height="284pt"
 viewBox="0.00 0.00 997.00 284.00" xmlns="http://www.w3.org/2000/svg" xmlns:xlink="http://www.w3.org/1999/xlink">
<g id="graph0" class="graph" transform="scale(1 1) rotate(0) translate(4 280)">
<title>dependencies</title>
<polygon fill="#ffffff" stroke="transparent" points="-4,4 -4,-280 993,-280 993,4 -4,4"/>
<text text-anchor="start" x="473.5091" y="-42.4" font-family="sans-serif" font-weight="bold" font-size="14.00" fill="#000000">Legend</text>
<polygon fill="#ffffb3" stroke="transparent" points="260.5,-10 260.5,-30 280.5,-30 280.5,-10 260.5,-10"/>
<text text-anchor="start" x="284.129" y="-15.4" font-family="sans-serif" font-size="14.00" fill="#000000"> &#160;Declarations</text>
<polygon fill="#8dd3c7" stroke="transparent" points="373.5,-10 373.5,-30 393.5,-30 393.5,-10 373.5,-10"/>
<text text-anchor="start" x="397.2251" y="-15.4" font-family="sans-serif" font-size="14.00" fill="#000000"> &#160;Module</text>
<polygon fill="#80b1d3" stroke="transparent" points="459.5,-10 459.5,-30 479.5,-30 479.5,-10 459.5,-10"/>
<text text-anchor="start" x="483.2812" y="-15.4" font-family="sans-serif" font-size="14.00" fill="#000000"> &#160;Bootstrap</text>
<polygon fill="#fdb462" stroke="transparent" points="556.5,-10 556.5,-30 576.5,-30 576.5,-10 556.5,-10"/>
<text text-anchor="start" x="580.1732" y="-15.4" font-family="sans-serif" font-size="14.00" fill="#000000"> &#160;Providers</text>
<polygon fill="#fb8072" stroke="transparent" points="652.5,-10 652.5,-30 672.5,-30 672.5,-10 652.5,-10"/>
<text text-anchor="start" x="676.2258" y="-15.4" font-family="sans-serif" font-size="14.00" fill="#000000"> &#160;Exports</text>
<g id="clust1" class="cluster">
<title>cluster_InformationModule</title>
<polygon fill="none" stroke="#000000" stroke-dasharray="1,5" points="8,-70 8,-268 981,-268 981,-70 8,-70"/>
</g>
<g id="clust2" class="cluster">
<title>cluster_InformationModule_declarations</title>
<polygon fill="none" stroke="#000000" points="212,-78 212,-130 973,-130 973,-78 212,-78"/>
</g>
<g id="clust7" class="cluster">
<title>cluster_InformationModule_imports</title>
<polygon fill="none" stroke="#000000" points="16,-78 16,-130 204,-130 204,-78 16,-78"/>
</g>
<g id="clust8" class="cluster">
<title>cluster_InformationModule_exports</title>
<polygon fill="none" stroke="#000000" points="107,-208 107,-260 883,-260 883,-208 107,-208"/>
</g>
<!-- ContactUsComponent -->
<g id="node1" class="node">
<title>ContactUsComponent</title>
<polygon fill="#ffffb3" stroke="#000000" points="965.4313,-122 824.5687,-122 824.5687,-86 965.4313,-86 965.4313,-122"/>
<text text-anchor="middle" x="895" y="-99.8" font-family="Times,serif" font-size="14.00" fill="#000000">ContactUsComponent</text>
</g>
<!-- InformationModule -->
<g id="node5" class="node">
<title>InformationModule</title>
<polygon fill="#8dd3c7" stroke="#000000" points="567.4187,-187 564.4187,-191 543.4187,-191 540.4187,-187 440.5813,-187 440.5813,-151 567.4187,-151 567.4187,-187"/>
<text text-anchor="middle" x="504" y="-164.8" font-family="Times,serif" font-size="14.00" fill="#000000">InformationModule</text>
</g>
<!-- ContactUsComponent&#45;&gt;InformationModule -->
<g id="edge1" class="edge">
<title>ContactUsComponent&#45;&gt;InformationModule</title>
<path fill="none" stroke="#000000" d="M849.875,-122.1061C849.875,-141.3391 849.875,-169 849.875,-169 849.875,-169 577.4388,-169 577.4388,-169"/>
<polygon fill="#000000" stroke="#000000" points="577.4388,-165.5001 567.4388,-169 577.4388,-172.5001 577.4388,-165.5001"/>
</g>
<!-- TermsConditionsComponent -->
<g id="node2" class="node">
<title>TermsConditionsComponent</title>
<polygon fill="#ffffb3" stroke="#000000" points="807.049,-122 628.951,-122 628.951,-86 807.049,-86 807.049,-122"/>
<text text-anchor="middle" x="718" y="-99.8" font-family="Times,serif" font-size="14.00" fill="#000000">TermsConditionsComponent</text>
</g>
<!-- TermsConditionsComponent&#45;&gt;InformationModule -->
<g id="edge2" class="edge">
<title>TermsConditionsComponent&#45;&gt;InformationModule</title>
<path fill="none" stroke="#000000" d="M670.875,-122.027C670.875,-138.3976 670.875,-160 670.875,-160 670.875,-160 577.5643,-160 577.5643,-160"/>
<polygon fill="#000000" stroke="#000000" points="577.5644,-156.5001 567.5643,-160 577.5643,-163.5001 577.5644,-156.5001"/>
</g>
<!-- GuaranteeReturnPolicyComponent -->
<g id="node3" class="node">
<title>GuaranteeReturnPolicyComponent</title>
<polygon fill="#ffffb3" stroke="#000000" points="610.2296,-122 397.7704,-122 397.7704,-86 610.2296,-86 610.2296,-122"/>
<text text-anchor="middle" x="504" y="-99.8" font-family="Times,serif" font-size="14.00" fill="#000000">GuaranteeReturnPolicyComponent</text>
</g>
<!-- GuaranteeReturnPolicyComponent&#45;&gt;InformationModule -->
<g id="edge3" class="edge">
<title>GuaranteeReturnPolicyComponent&#45;&gt;InformationModule</title>
<path fill="none" stroke="#000000" d="M504,-122.1061C504,-122.1061 504,-140.991 504,-140.991"/>
<polygon fill="#000000" stroke="#000000" points="500.5001,-140.9909 504,-150.991 507.5001,-140.991 500.5001,-140.9909"/>
</g>
<!-- PrivacyPolicyComponent -->
<g id="node4" class="node">
<title>PrivacyPolicyComponent</title>
<polygon fill="#ffffb3" stroke="#000000" points="379.8738,-122 220.1262,-122 220.1262,-86 379.8738,-86 379.8738,-122"/>
<text text-anchor="middle" x="300" y="-99.8" font-family="Times,serif" font-size="14.00" fill="#000000">PrivacyPolicyComponent</text>
</g>
<!-- PrivacyPolicyComponent&#45;&gt;InformationModule -->
<g id="edge4" class="edge">
<title>PrivacyPolicyComponent&#45;&gt;InformationModule</title>
<path fill="none" stroke="#000000" d="M338.4111,-122.027C338.4111,-138.3976 338.4111,-160 338.4111,-160 338.4111,-160 430.4526,-160 430.4526,-160"/>
<polygon fill="#000000" stroke="#000000" points="430.4526,-163.5001 440.4526,-160 430.4525,-156.5001 430.4526,-163.5001"/>
</g>
<!-- ContactUsComponent  -->
<g id="node7" class="node">
<title>ContactUsComponent </title>
<polygon fill="#fb8072" stroke="#000000" points="874.9306,-252 731.0694,-252 731.0694,-216 874.9306,-216 874.9306,-252"/>
<text text-anchor="middle" x="803" y="-229.8" font-family="Times,serif" font-size="14.00" fill="#000000">ContactUsComponent </text>
</g>
<!-- InformationModule&#45;&gt;ContactUsComponent  -->
<g id="edge6" class="edge">
<title>InformationModule&#45;&gt;ContactUsComponent </title>
<path fill="none" stroke="#000000" stroke-dasharray="5,2" d="M567.5111,-178C645.9547,-178 769.1545,-178 769.1545,-178 769.1545,-178 769.1545,-205.973 769.1545,-205.973"/>
<polygon fill="#000000" stroke="#000000" points="765.6545,-205.973 769.1545,-215.973 772.6545,-205.973 765.6545,-205.973"/>
</g>
<!-- TermsConditionsComponent  -->
<g id="node8" class="node">
<title>TermsConditionsComponent </title>
<polygon fill="#fb8072" stroke="#000000" points="713.0484,-252 530.9516,-252 530.9516,-216 713.0484,-216 713.0484,-252"/>
<text text-anchor="middle" x="622" y="-229.8" font-family="Times,serif" font-size="14.00" fill="#000000">TermsConditionsComponent </text>
</g>
<!-- InformationModule&#45;&gt;TermsConditionsComponent  -->
<g id="edge7" class="edge">
<title>InformationModule&#45;&gt;TermsConditionsComponent </title>
<path fill="none" stroke="#000000" stroke-dasharray="5,2" d="M549.0924,-187.1061C549.0924,-187.1061 549.0924,-205.991 549.0924,-205.991"/>
<polygon fill="#000000" stroke="#000000" points="545.5925,-205.9909 549.0924,-215.991 552.5925,-205.991 545.5925,-205.9909"/>
</g>
<!-- GuaranteeReturnPolicyComponent  -->
<g id="node9" class="node">
<title>GuaranteeReturnPolicyComponent </title>
<polygon fill="#fb8072" stroke="#000000" points="513.2295,-252 296.7705,-252 296.7705,-216 513.2295,-216 513.2295,-252"/>
<text text-anchor="middle" x="405" y="-229.8" font-family="Times,serif" font-size="14.00" fill="#000000">GuaranteeReturnPolicyComponent </text>
</g>
<!-- InformationModule&#45;&gt;GuaranteeReturnPolicyComponent  -->
<g id="edge8" class="edge">
<title>InformationModule&#45;&gt;GuaranteeReturnPolicyComponent </title>
<path fill="none" stroke="#000000" stroke-dasharray="5,2" d="M476.9529,-187.1061C476.9529,-187.1061 476.9529,-205.991 476.9529,-205.991"/>
<polygon fill="#000000" stroke="#000000" points="473.4529,-205.9909 476.9529,-215.991 480.4529,-205.991 473.4529,-205.9909"/>
</g>
<!-- PrivacyPolicyComponent  -->
<g id="node10" class="node">
<title>PrivacyPolicyComponent </title>
<polygon fill="#fb8072" stroke="#000000" points="278.8742,-252 115.1258,-252 115.1258,-216 278.8742,-216 278.8742,-252"/>
<text text-anchor="middle" x="197" y="-229.8" font-family="Times,serif" font-size="14.00" fill="#000000">PrivacyPolicyComponent </text>
</g>
<!-- InformationModule&#45;&gt;PrivacyPolicyComponent  -->
<g id="edge9" class="edge">
<title>InformationModule&#45;&gt;PrivacyPolicyComponent </title>
<path fill="none" stroke="#000000" stroke-dasharray="5,2" d="M440.7318,-178C365.3214,-178 249.375,-178 249.375,-178 249.375,-178 249.375,-205.973 249.375,-205.973"/>
<polygon fill="#000000" stroke="#000000" points="245.8751,-205.973 249.375,-215.973 252.8751,-205.973 245.8751,-205.973"/>
</g>
<!-- InfomationRoutingModules -->
<g id="node6" class="node">
<title>InfomationRoutingModules</title>
<polygon fill="#8dd3c7" stroke="#000000" points="196.3201,-122 193.3201,-126 172.3201,-126 169.3201,-122 23.6799,-122 23.6799,-86 196.3201,-86 196.3201,-122"/>
<text text-anchor="middle" x="110" y="-99.8" font-family="Times,serif" font-size="14.00" fill="#000000">InfomationRoutingModules</text>
</g>
<!-- InfomationRoutingModules&#45;&gt;InformationModule -->
<g id="edge5" class="edge">
<title>InfomationRoutingModules&#45;&gt;InformationModule</title>
<path fill="none" stroke="#000000" d="M155.7365,-122.1061C155.7365,-141.3391 155.7365,-169 155.7365,-169 155.7365,-169 430.5281,-169 430.5281,-169"/>
<polygon fill="#000000" stroke="#000000" points="430.5281,-172.5001 440.5281,-169 430.528,-165.5001 430.5281,-172.5001"/>
</g>
</g>
</svg>
