<?xml version="1.0" encoding="UTF-8" standalone="no"?>
<!DOCTYPE svg PUBLIC "-//W3C//DTD SVG 1.1//EN"
 "http://www.w3.org/Graphics/SVG/1.1/DTD/svg11.dtd">
<!-- Generated by graphviz version 2.40.1 (20161225.0304)
 -->
<!-- Title: dependencies Pages: 1 -->
<svg width="1265pt" height="284pt"
 viewBox="0.00 0.00 1265.00 284.00" xmlns="http://www.w3.org/2000/svg" xmlns:xlink="http://www.w3.org/1999/xlink">
<g id="graph0" class="graph" transform="scale(1 1) rotate(0) translate(4 280)">
<title>dependencies</title>
<polygon fill="#ffffff" stroke="transparent" points="-4,4 -4,-280 1261,-280 1261,4 -4,4"/>
<text text-anchor="start" x="607.5091" y="-42.4" font-family="sans-serif" font-weight="bold" font-size="14.00" fill="#000000">Legend</text>
<polygon fill="#ffffb3" stroke="transparent" points="394.5,-10 394.5,-30 414.5,-30 414.5,-10 394.5,-10"/>
<text text-anchor="start" x="418.129" y="-15.4" font-family="sans-serif" font-size="14.00" fill="#000000"> &#160;Declarations</text>
<polygon fill="#8dd3c7" stroke="transparent" points="507.5,-10 507.5,-30 527.5,-30 527.5,-10 507.5,-10"/>
<text text-anchor="start" x="531.2251" y="-15.4" font-family="sans-serif" font-size="14.00" fill="#000000"> &#160;Module</text>
<polygon fill="#80b1d3" stroke="transparent" points="593.5,-10 593.5,-30 613.5,-30 613.5,-10 593.5,-10"/>
<text text-anchor="start" x="617.2812" y="-15.4" font-family="sans-serif" font-size="14.00" fill="#000000"> &#160;Bootstrap</text>
<polygon fill="#fdb462" stroke="transparent" points="690.5,-10 690.5,-30 710.5,-30 710.5,-10 690.5,-10"/>
<text text-anchor="start" x="714.1732" y="-15.4" font-family="sans-serif" font-size="14.00" fill="#000000"> &#160;Providers</text>
<polygon fill="#fb8072" stroke="transparent" points="786.5,-10 786.5,-30 806.5,-30 806.5,-10 786.5,-10"/>
<text text-anchor="start" x="810.2258" y="-15.4" font-family="sans-serif" font-size="14.00" fill="#000000"> &#160;Exports</text>
<g id="clust1" class="cluster">
<title>cluster_InformationModule</title>
<polygon fill="none" stroke="#000000" stroke-dasharray="1,5" points="8,-70 8,-268 1249,-268 1249,-70 8,-70"/>
</g>
<g id="clust2" class="cluster">
<title>cluster_InformationModule_declarations</title>
<polygon fill="none" stroke="#000000" points="328,-78 328,-130 1241,-130 1241,-78 328,-78"/>
</g>
<g id="clust8" class="cluster">
<title>cluster_InformationModule_imports</title>
<polygon fill="none" stroke="#000000" points="16,-78 16,-130 320,-130 320,-78 16,-78"/>
</g>
<g id="clust9" class="cluster">
<title>cluster_InformationModule_exports</title>
<polygon fill="none" stroke="#000000" points="162,-208 162,-260 938,-260 938,-208 162,-208"/>
</g>
<!-- ContactUsComponent -->
<g id="node1" class="node">
<title>ContactUsComponent</title>
<polygon fill="#ffffb3" stroke="#000000" points="1233.4313,-122 1092.5687,-122 1092.5687,-86 1233.4313,-86 1233.4313,-122"/>
<text text-anchor="middle" x="1163" y="-99.8" font-family="Times,serif" font-size="14.00" fill="#000000">ContactUsComponent</text>
</g>
<!-- InformationModule -->
<g id="node6" class="node">
<title>InformationModule</title>
<polygon fill="#8dd3c7" stroke="#000000" points="631.4187,-187 628.4187,-191 607.4187,-191 604.4187,-187 504.5813,-187 504.5813,-151 631.4187,-151 631.4187,-187"/>
<text text-anchor="middle" x="568" y="-164.8" font-family="Times,serif" font-size="14.00" fill="#000000">InformationModule</text>
</g>
<!-- ContactUsComponent&#45;&gt;InformationModule -->
<g id="edge1" class="edge">
<title>ContactUsComponent&#45;&gt;InformationModule</title>
<path fill="none" stroke="#000000" d="M1163,-122.1289C1163,-142.5724 1163,-173 1163,-173 1163,-173 641.3935,-173 641.3935,-173"/>
<polygon fill="#000000" stroke="#000000" points="641.3936,-169.5001 631.3935,-173 641.3935,-176.5001 641.3936,-169.5001"/>
</g>
<!-- TermsConditionsComponent -->
<g id="node2" class="node">
<title>TermsConditionsComponent</title>
<polygon fill="#ffffb3" stroke="#000000" points="1075.049,-122 896.951,-122 896.951,-86 1075.049,-86 1075.049,-122"/>
<text text-anchor="middle" x="986" y="-99.8" font-family="Times,serif" font-size="14.00" fill="#000000">TermsConditionsComponent</text>
</g>
<!-- TermsConditionsComponent&#45;&gt;InformationModule -->
<g id="edge2" class="edge">
<title>TermsConditionsComponent&#45;&gt;InformationModule</title>
<path fill="none" stroke="#000000" d="M913.3456,-122.2667C913.3456,-140.5552 913.3456,-166 913.3456,-166 913.3456,-166 641.3417,-166 641.3417,-166"/>
<polygon fill="#000000" stroke="#000000" points="641.3417,-162.5001 631.3417,-166 641.3417,-169.5001 641.3417,-162.5001"/>
</g>
<!-- GuaranteeReturnPolicyComponent -->
<g id="node3" class="node">
<title>GuaranteeReturnPolicyComponent</title>
<polygon fill="#ffffb3" stroke="#000000" points="878.2296,-122 665.7704,-122 665.7704,-86 878.2296,-86 878.2296,-122"/>
<text text-anchor="middle" x="772" y="-99.8" font-family="Times,serif" font-size="14.00" fill="#000000">GuaranteeReturnPolicyComponent</text>
</g>
<!-- GuaranteeReturnPolicyComponent&#45;&gt;InformationModule -->
<g id="edge3" class="edge">
<title>GuaranteeReturnPolicyComponent&#45;&gt;InformationModule</title>
<path fill="none" stroke="#000000" d="M716.8298,-122.0091C716.8298,-138.0494 716.8298,-159 716.8298,-159 716.8298,-159 641.5489,-159 641.5489,-159"/>
<polygon fill="#000000" stroke="#000000" points="641.5489,-155.5001 631.5489,-159 641.5489,-162.5001 641.5489,-155.5001"/>
</g>
<!-- PrivacyPolicyComponent -->
<g id="node4" class="node">
<title>PrivacyPolicyComponent</title>
<polygon fill="#ffffb3" stroke="#000000" points="647.8738,-122 488.1262,-122 488.1262,-86 647.8738,-86 647.8738,-122"/>
<text text-anchor="middle" x="568" y="-99.8" font-family="Times,serif" font-size="14.00" fill="#000000">PrivacyPolicyComponent</text>
</g>
<!-- PrivacyPolicyComponent&#45;&gt;InformationModule -->
<g id="edge4" class="edge">
<title>PrivacyPolicyComponent&#45;&gt;InformationModule</title>
<path fill="none" stroke="#000000" d="M568,-122.1061C568,-122.1061 568,-140.991 568,-140.991"/>
<polygon fill="#000000" stroke="#000000" points="564.5001,-140.9909 568,-150.991 571.5001,-140.991 564.5001,-140.9909"/>
</g>
<!-- LocateUsComponent -->
<g id="node5" class="node">
<title>LocateUsComponent</title>
<polygon fill="#ffffb3" stroke="#000000" points="470.4706,-122 335.5294,-122 335.5294,-86 470.4706,-86 470.4706,-122"/>
<text text-anchor="middle" x="403" y="-99.8" font-family="Times,serif" font-size="14.00" fill="#000000">LocateUsComponent</text>
</g>
<!-- LocateUsComponent&#45;&gt;InformationModule -->
<g id="edge5" class="edge">
<title>LocateUsComponent&#45;&gt;InformationModule</title>
<path fill="none" stroke="#000000" d="M411.1853,-122.0091C411.1853,-138.0494 411.1853,-159 411.1853,-159 411.1853,-159 494.6695,-159 494.6695,-159"/>
<polygon fill="#000000" stroke="#000000" points="494.6695,-162.5001 504.6695,-159 494.6694,-155.5001 494.6695,-162.5001"/>
</g>
<!-- ContactUsComponent  -->
<g id="node9" class="node">
<title>ContactUsComponent </title>
<polygon fill="#fb8072" stroke="#000000" points="929.9306,-252 786.0694,-252 786.0694,-216 929.9306,-216 929.9306,-252"/>
<text text-anchor="middle" x="858" y="-229.8" font-family="Times,serif" font-size="14.00" fill="#000000">ContactUsComponent </text>
</g>
<!-- InformationModule&#45;&gt;ContactUsComponent  -->
<g id="edge8" class="edge">
<title>InformationModule&#45;&gt;ContactUsComponent </title>
<path fill="none" stroke="#000000" stroke-dasharray="5,2" d="M631.2824,-180C709.4436,-180 832.1997,-180 832.1997,-180 832.1997,-180 832.1997,-205.7181 832.1997,-205.7181"/>
<polygon fill="#000000" stroke="#000000" points="828.6998,-205.718 832.1997,-215.7181 835.6998,-205.7181 828.6998,-205.718"/>
</g>
<!-- TermsConditionsComponent  -->
<g id="node10" class="node">
<title>TermsConditionsComponent </title>
<polygon fill="#fb8072" stroke="#000000" points="768.0484,-252 585.9516,-252 585.9516,-216 768.0484,-216 768.0484,-252"/>
<text text-anchor="middle" x="677" y="-229.8" font-family="Times,serif" font-size="14.00" fill="#000000">TermsConditionsComponent </text>
</g>
<!-- InformationModule&#45;&gt;TermsConditionsComponent  -->
<g id="edge9" class="edge">
<title>InformationModule&#45;&gt;TermsConditionsComponent </title>
<path fill="none" stroke="#000000" stroke-dasharray="5,2" d="M608.5924,-187.1061C608.5924,-187.1061 608.5924,-205.991 608.5924,-205.991"/>
<polygon fill="#000000" stroke="#000000" points="605.0925,-205.9909 608.5924,-215.991 612.0925,-205.991 605.0925,-205.9909"/>
</g>
<!-- GuaranteeReturnPolicyComponent  -->
<g id="node11" class="node">
<title>GuaranteeReturnPolicyComponent </title>
<polygon fill="#fb8072" stroke="#000000" points="568.2295,-252 351.7705,-252 351.7705,-216 568.2295,-216 568.2295,-252"/>
<text text-anchor="middle" x="460" y="-229.8" font-family="Times,serif" font-size="14.00" fill="#000000">GuaranteeReturnPolicyComponent </text>
</g>
<!-- InformationModule&#45;&gt;GuaranteeReturnPolicyComponent  -->
<g id="edge10" class="edge">
<title>InformationModule&#45;&gt;GuaranteeReturnPolicyComponent </title>
<path fill="none" stroke="#000000" stroke-dasharray="5,2" d="M536.4529,-187.1061C536.4529,-187.1061 536.4529,-205.991 536.4529,-205.991"/>
<polygon fill="#000000" stroke="#000000" points="532.9529,-205.9909 536.4529,-215.991 539.9529,-205.991 532.9529,-205.9909"/>
</g>
<!-- PrivacyPolicyComponent  -->
<g id="node12" class="node">
<title>PrivacyPolicyComponent </title>
<polygon fill="#fb8072" stroke="#000000" points="333.8742,-252 170.1258,-252 170.1258,-216 333.8742,-216 333.8742,-252"/>
<text text-anchor="middle" x="252" y="-229.8" font-family="Times,serif" font-size="14.00" fill="#000000">PrivacyPolicyComponent </text>
</g>
<!-- InformationModule&#45;&gt;PrivacyPolicyComponent  -->
<g id="edge11" class="edge">
<title>InformationModule&#45;&gt;PrivacyPolicyComponent </title>
<path fill="none" stroke="#000000" stroke-dasharray="5,2" d="M504.568,-180C431.9527,-180 322.9234,-180 322.9234,-180 322.9234,-180 322.9234,-205.7181 322.9234,-205.7181"/>
<polygon fill="#000000" stroke="#000000" points="319.4235,-205.718 322.9234,-215.7181 326.4235,-205.7181 319.4235,-205.718"/>
</g>
<!-- InfomationRoutingModules -->
<g id="node7" class="node">
<title>InfomationRoutingModules</title>
<polygon fill="#8dd3c7" stroke="#000000" points="312.3201,-122 309.3201,-126 288.3201,-126 285.3201,-122 139.6799,-122 139.6799,-86 312.3201,-86 312.3201,-122"/>
<text text-anchor="middle" x="226" y="-99.8" font-family="Times,serif" font-size="14.00" fill="#000000">InfomationRoutingModules</text>
</g>
<!-- InfomationRoutingModules&#45;&gt;InformationModule -->
<g id="edge6" class="edge">
<title>InfomationRoutingModules&#45;&gt;InformationModule</title>
<path fill="none" stroke="#000000" d="M241.2365,-122.2667C241.2365,-140.5552 241.2365,-166 241.2365,-166 241.2365,-166 494.6093,-166 494.6093,-166"/>
<polygon fill="#000000" stroke="#000000" points="494.6093,-169.5001 504.6093,-166 494.6092,-162.5001 494.6093,-169.5001"/>
</g>
<!-- SharedModule -->
<g id="node8" class="node">
<title>SharedModule</title>
<polygon fill="#8dd3c7" stroke="#000000" points="122.4231,-122 119.4231,-126 98.4231,-126 95.4231,-122 23.5769,-122 23.5769,-86 122.4231,-86 122.4231,-122"/>
<text text-anchor="middle" x="73" y="-99.8" font-family="Times,serif" font-size="14.00" fill="#000000">SharedModule</text>
</g>
<!-- SharedModule&#45;&gt;InformationModule -->
<g id="edge7" class="edge">
<title>SharedModule&#45;&gt;InformationModule</title>
<path fill="none" stroke="#000000" d="M73,-122.1289C73,-142.5724 73,-173 73,-173 73,-173 494.5531,-173 494.5531,-173"/>
<polygon fill="#000000" stroke="#000000" points="494.5532,-176.5001 504.5531,-173 494.5531,-169.5001 494.5532,-176.5001"/>
</g>
</g>
</svg>
