<?xml version="1.0" encoding="UTF-8" standalone="no"?>
<!DOCTYPE svg PUBLIC "-//W3C//DTD SVG 1.1//EN"
 "http://www.w3.org/Graphics/SVG/1.1/DTD/svg11.dtd">
<!-- Generated by graphviz version 2.40.1 (20161225.0304)
 -->
<!-- Title: dependencies Pages: 1 -->
<svg width="504pt" height="211pt"
 viewBox="0.00 0.00 504.00 211.00" xmlns="http://www.w3.org/2000/svg" xmlns:xlink="http://www.w3.org/1999/xlink">
<g id="graph0" class="graph" transform="scale(1 1) rotate(0) translate(4 207)">
<title>dependencies</title>
<polygon fill="#ffffff" stroke="transparent" points="-4,4 -4,-207 500,-207 500,4 -4,4"/>
<text text-anchor="start" x="227.0091" y="-42.4" font-family="sans-serif" font-weight="bold" font-size="14.00" fill="#000000">Legend</text>
<polygon fill="#ffffb3" stroke="transparent" points="14,-10 14,-30 34,-30 34,-10 14,-10"/>
<text text-anchor="start" x="37.629" y="-15.4" font-family="sans-serif" font-size="14.00" fill="#000000"> &#160;Declarations</text>
<polygon fill="#8dd3c7" stroke="transparent" points="127,-10 127,-30 147,-30 147,-10 127,-10"/>
<text text-anchor="start" x="150.7251" y="-15.4" font-family="sans-serif" font-size="14.00" fill="#000000"> &#160;Module</text>
<polygon fill="#80b1d3" stroke="transparent" points="213,-10 213,-30 233,-30 233,-10 213,-10"/>
<text text-anchor="start" x="236.7812" y="-15.4" font-family="sans-serif" font-size="14.00" fill="#000000"> &#160;Bootstrap</text>
<polygon fill="#fdb462" stroke="transparent" points="310,-10 310,-30 330,-30 330,-10 310,-10"/>
<text text-anchor="start" x="333.6732" y="-15.4" font-family="sans-serif" font-size="14.00" fill="#000000"> &#160;Providers</text>
<polygon fill="#fb8072" stroke="transparent" points="406,-10 406,-30 426,-30 426,-10 406,-10"/>
<text text-anchor="start" x="429.7258" y="-15.4" font-family="sans-serif" font-size="14.00" fill="#000000"> &#160;Exports</text>
<g id="clust1" class="cluster">
<title>cluster_CartModule</title>
<polygon fill="none" stroke="#000000" stroke-dasharray="1,5" points="85,-70 85,-195 411,-195 411,-70 85,-70"/>
</g>
<g id="clust2" class="cluster">
<title>cluster_CartModule_declarations</title>
<polygon fill="none" stroke="#000000" points="93,-78 93,-130 403,-130 403,-78 93,-78"/>
</g>
<!-- CartProductListComponent -->
<g id="node1" class="node">
<title>CartProductListComponent</title>
<polygon fill="#ffffb3" stroke="#000000" points="395.2618,-122 224.7382,-122 224.7382,-86 395.2618,-86 395.2618,-122"/>
<text text-anchor="middle" x="310" y="-99.8" font-family="Times,serif" font-size="14.00" fill="#000000">CartProductListComponent</text>
</g>
<!-- CartModule -->
<g id="node3" class="node">
<title>CartModule</title>
<polygon fill="#8dd3c7" stroke="#000000" points="273.6529,-187 270.6529,-191 249.6529,-191 246.6529,-187 190.3471,-187 190.3471,-151 273.6529,-151 273.6529,-187"/>
<text text-anchor="middle" x="232" y="-164.8" font-family="Times,serif" font-size="14.00" fill="#000000">CartModule</text>
</g>
<!-- CartProductListComponent&#45;&gt;CartModule -->
<g id="edge1" class="edge">
<title>CartProductListComponent&#45;&gt;CartModule</title>
<path fill="none" stroke="#000000" d="M249.2227,-122.1061C249.2227,-122.1061 249.2227,-140.991 249.2227,-140.991"/>
<polygon fill="#000000" stroke="#000000" points="245.7227,-140.9909 249.2227,-150.991 252.7227,-140.991 245.7227,-140.9909"/>
</g>
<!-- CartComponent -->
<g id="node2" class="node">
<title>CartComponent</title>
<polygon fill="#ffffb3" stroke="#000000" points="206.9357,-122 101.0643,-122 101.0643,-86 206.9357,-86 206.9357,-122"/>
<text text-anchor="middle" x="154" y="-99.8" font-family="Times,serif" font-size="14.00" fill="#000000">CartComponent</text>
</g>
<!-- CartComponent&#45;&gt;CartModule -->
<g id="edge2" class="edge">
<title>CartComponent&#45;&gt;CartModule</title>
<path fill="none" stroke="#000000" d="M198.4457,-122.1061C198.4457,-122.1061 198.4457,-140.991 198.4457,-140.991"/>
<polygon fill="#000000" stroke="#000000" points="194.9457,-140.9909 198.4457,-150.991 201.9457,-140.991 194.9457,-140.9909"/>
</g>
</g>
</svg>
