<?xml version="1.0" encoding="UTF-8" standalone="no"?>
<!DOCTYPE svg PUBLIC "-//W3C//DTD SVG 1.1//EN"
 "http://www.w3.org/Graphics/SVG/1.1/DTD/svg11.dtd">
<!-- Generated by graphviz version 2.40.1 (20161225.0304)
 -->
<!-- Title: dependencies Pages: 1 -->
<svg width="1307pt" height="284pt"
 viewBox="0.00 0.00 1307.00 284.00" xmlns="http://www.w3.org/2000/svg" xmlns:xlink="http://www.w3.org/1999/xlink">
<g id="graph0" class="graph" transform="scale(1 1) rotate(0) translate(4 280)">
<title>dependencies</title>
<polygon fill="#ffffff" stroke="transparent" points="-4,4 -4,-280 1303,-280 1303,4 -4,4"/>
<text text-anchor="start" x="628.5091" y="-42.4" font-family="sans-serif" font-weight="bold" font-size="14.00" fill="#000000">Legend</text>
<polygon fill="#ffffb3" stroke="transparent" points="415.5,-10 415.5,-30 435.5,-30 435.5,-10 415.5,-10"/>
<text text-anchor="start" x="439.129" y="-15.4" font-family="sans-serif" font-size="14.00" fill="#000000"> &#160;Declarations</text>
<polygon fill="#8dd3c7" stroke="transparent" points="528.5,-10 528.5,-30 548.5,-30 548.5,-10 528.5,-10"/>
<text text-anchor="start" x="552.2251" y="-15.4" font-family="sans-serif" font-size="14.00" fill="#000000"> &#160;Module</text>
<polygon fill="#80b1d3" stroke="transparent" points="614.5,-10 614.5,-30 634.5,-30 634.5,-10 614.5,-10"/>
<text text-anchor="start" x="638.2812" y="-15.4" font-family="sans-serif" font-size="14.00" fill="#000000"> &#160;Bootstrap</text>
<polygon fill="#fdb462" stroke="transparent" points="711.5,-10 711.5,-30 731.5,-30 731.5,-10 711.5,-10"/>
<text text-anchor="start" x="735.1732" y="-15.4" font-family="sans-serif" font-size="14.00" fill="#000000"> &#160;Providers</text>
<polygon fill="#fb8072" stroke="transparent" points="807.5,-10 807.5,-30 827.5,-30 827.5,-10 807.5,-10"/>
<text text-anchor="start" x="831.2258" y="-15.4" font-family="sans-serif" font-size="14.00" fill="#000000"> &#160;Exports</text>
<g id="clust1" class="cluster">
<title>cluster_HomeModule</title>
<polygon fill="none" stroke="#000000" stroke-dasharray="1,5" points="8,-70 8,-268 1291,-268 1291,-70 8,-70"/>
</g>
<g id="clust2" class="cluster">
<title>cluster_HomeModule_declarations</title>
<polygon fill="none" stroke="#000000" points="295,-78 295,-130 1283,-130 1283,-78 295,-78"/>
</g>
<g id="clust9" class="cluster">
<title>cluster_HomeModule_imports</title>
<polygon fill="none" stroke="#000000" points="16,-78 16,-130 287,-130 287,-78 16,-78"/>
</g>
<g id="clust10" class="cluster">
<title>cluster_HomeModule_exports</title>
<polygon fill="none" stroke="#000000" points="303,-208 303,-260 973,-260 973,-208 303,-208"/>
</g>
<!-- HomeComponent -->
<g id="node1" class="node">
<title>HomeComponent</title>
<polygon fill="#ffffb3" stroke="#000000" points="1274.5451,-122 1159.4549,-122 1159.4549,-86 1274.5451,-86 1274.5451,-122"/>
<text text-anchor="middle" x="1217" y="-99.8" font-family="Times,serif" font-size="14.00" fill="#000000">HomeComponent</text>
</g>
<!-- HomeModule -->
<g id="node7" class="node">
<title>HomeModule</title>
<polygon fill="#8dd3c7" stroke="#000000" points="724.7619,-187 721.7619,-191 700.7619,-191 697.7619,-187 631.2381,-187 631.2381,-151 724.7619,-151 724.7619,-187"/>
<text text-anchor="middle" x="678" y="-164.8" font-family="Times,serif" font-size="14.00" fill="#000000">HomeModule</text>
</g>
<!-- HomeComponent&#45;&gt;HomeModule -->
<g id="edge1" class="edge">
<title>HomeComponent&#45;&gt;HomeModule</title>
<path fill="none" stroke="#000000" d="M1217,-122.1289C1217,-142.5724 1217,-173 1217,-173 1217,-173 734.8898,-173 734.8898,-173"/>
<polygon fill="#000000" stroke="#000000" points="734.8899,-169.5001 724.8898,-173 734.8898,-176.5001 734.8899,-169.5001"/>
</g>
<!-- HeaderComponent -->
<g id="node2" class="node">
<title>HeaderComponent</title>
<polygon fill="#ffffb3" stroke="#000000" points="1140.7437,-122 1019.2563,-122 1019.2563,-86 1140.7437,-86 1140.7437,-122"/>
<text text-anchor="middle" x="1080" y="-99.8" font-family="Times,serif" font-size="14.00" fill="#000000">HeaderComponent</text>
</g>
<!-- HeaderComponent&#45;&gt;HomeModule -->
<g id="edge2" class="edge">
<title>HeaderComponent&#45;&gt;HomeModule</title>
<path fill="none" stroke="#000000" d="M1080,-122.2667C1080,-140.5552 1080,-166 1080,-166 1080,-166 734.9013,-166 734.9013,-166"/>
<polygon fill="#000000" stroke="#000000" points="734.9013,-162.5001 724.9013,-166 734.9012,-169.5001 734.9013,-162.5001"/>
</g>
<!-- FooterComponent -->
<g id="node3" class="node">
<title>FooterComponent</title>
<polygon fill="#ffffb3" stroke="#000000" points="1000.8809,-122 883.1191,-122 883.1191,-86 1000.8809,-86 1000.8809,-122"/>
<text text-anchor="middle" x="942" y="-99.8" font-family="Times,serif" font-size="14.00" fill="#000000">FooterComponent</text>
</g>
<!-- FooterComponent&#45;&gt;HomeModule -->
<g id="edge3" class="edge">
<title>FooterComponent&#45;&gt;HomeModule</title>
<path fill="none" stroke="#000000" d="M923.8407,-122.0091C923.8407,-138.0494 923.8407,-159 923.8407,-159 923.8407,-159 734.8194,-159 734.8194,-159"/>
<polygon fill="#000000" stroke="#000000" points="734.8194,-155.5001 724.8194,-159 734.8194,-162.5001 734.8194,-155.5001"/>
</g>
<!-- ProfileDropdownComponent -->
<g id="node4" class="node">
<title>ProfileDropdownComponent</title>
<polygon fill="#ffffb3" stroke="#000000" points="864.8061,-122 685.1939,-122 685.1939,-86 864.8061,-86 864.8061,-122"/>
<text text-anchor="middle" x="775" y="-99.8" font-family="Times,serif" font-size="14.00" fill="#000000">ProfileDropdownComponent</text>
</g>
<!-- ProfileDropdownComponent&#45;&gt;HomeModule -->
<g id="edge4" class="edge">
<title>ProfileDropdownComponent&#45;&gt;HomeModule</title>
<path fill="none" stroke="#000000" d="M705.1139,-122.1061C705.1139,-122.1061 705.1139,-140.991 705.1139,-140.991"/>
<polygon fill="#000000" stroke="#000000" points="701.614,-140.9909 705.1139,-150.991 708.614,-140.991 701.614,-140.9909"/>
</g>
<!-- CheckoutFooterComponent -->
<g id="node5" class="node">
<title>CheckoutFooterComponent</title>
<polygon fill="#ffffb3" stroke="#000000" points="667.5378,-122 496.4622,-122 496.4622,-86 667.5378,-86 667.5378,-122"/>
<text text-anchor="middle" x="582" y="-99.8" font-family="Times,serif" font-size="14.00" fill="#000000">CheckoutFooterComponent</text>
</g>
<!-- CheckoutFooterComponent&#45;&gt;HomeModule -->
<g id="edge5" class="edge">
<title>CheckoutFooterComponent&#45;&gt;HomeModule</title>
<path fill="none" stroke="#000000" d="M649.4439,-122.1061C649.4439,-122.1061 649.4439,-140.991 649.4439,-140.991"/>
<polygon fill="#000000" stroke="#000000" points="645.944,-140.9909 649.4439,-150.991 652.944,-140.991 645.944,-140.9909"/>
</g>
<!-- CheckoutHeaderComponent -->
<g id="node6" class="node">
<title>CheckoutHeaderComponent</title>
<polygon fill="#ffffb3" stroke="#000000" points="478.9003,-122 303.0997,-122 303.0997,-86 478.9003,-86 478.9003,-122"/>
<text text-anchor="middle" x="391" y="-99.8" font-family="Times,serif" font-size="14.00" fill="#000000">CheckoutHeaderComponent</text>
</g>
<!-- CheckoutHeaderComponent&#45;&gt;HomeModule -->
<g id="edge6" class="edge">
<title>CheckoutHeaderComponent&#45;&gt;HomeModule</title>
<path fill="none" stroke="#000000" d="M394.625,-122.0091C394.625,-138.0494 394.625,-159 394.625,-159 394.625,-159 621.2064,-159 621.2064,-159"/>
<polygon fill="#000000" stroke="#000000" points="621.2064,-162.5001 631.2064,-159 621.2063,-155.5001 621.2064,-162.5001"/>
</g>
<!-- HeaderComponent  -->
<g id="node10" class="node">
<title>HeaderComponent </title>
<polygon fill="#fb8072" stroke="#000000" points="964.7436,-252 839.2564,-252 839.2564,-216 964.7436,-216 964.7436,-252"/>
<text text-anchor="middle" x="902" y="-229.8" font-family="Times,serif" font-size="14.00" fill="#000000">HeaderComponent </text>
</g>
<!-- HomeModule&#45;&gt;HeaderComponent  -->
<g id="edge9" class="edge">
<title>HomeModule&#45;&gt;HeaderComponent </title>
<path fill="none" stroke="#000000" stroke-dasharray="5,2" d="M725.0911,-180C776.6266,-180 852.0156,-180 852.0156,-180 852.0156,-180 852.0156,-205.7181 852.0156,-205.7181"/>
<polygon fill="#000000" stroke="#000000" points="848.5157,-205.718 852.0156,-215.7181 855.5157,-205.7181 848.5157,-205.718"/>
</g>
<!-- FooterComponent  -->
<g id="node11" class="node">
<title>FooterComponent </title>
<polygon fill="#fb8072" stroke="#000000" points="821.8814,-252 700.1186,-252 700.1186,-216 821.8814,-216 821.8814,-252"/>
<text text-anchor="middle" x="761" y="-229.8" font-family="Times,serif" font-size="14.00" fill="#000000">FooterComponent </text>
</g>
<!-- HomeModule&#45;&gt;FooterComponent  -->
<g id="edge10" class="edge">
<title>HomeModule&#45;&gt;FooterComponent </title>
<path fill="none" stroke="#000000" stroke-dasharray="5,2" d="M712.5952,-187.1061C712.5952,-187.1061 712.5952,-205.991 712.5952,-205.991"/>
<polygon fill="#000000" stroke="#000000" points="709.0953,-205.9909 712.5952,-215.991 716.0953,-205.991 709.0953,-205.9909"/>
</g>
<!-- CheckoutFooterComponent  -->
<g id="node12" class="node">
<title>CheckoutFooterComponent </title>
<polygon fill="#fb8072" stroke="#000000" points="682.5372,-252 507.4628,-252 507.4628,-216 682.5372,-216 682.5372,-252"/>
<text text-anchor="middle" x="595" y="-229.8" font-family="Times,serif" font-size="14.00" fill="#000000">CheckoutFooterComponent </text>
</g>
<!-- HomeModule&#45;&gt;CheckoutFooterComponent  -->
<g id="edge11" class="edge">
<title>HomeModule&#45;&gt;CheckoutFooterComponent </title>
<path fill="none" stroke="#000000" stroke-dasharray="5,2" d="M656.8189,-187.1061C656.8189,-187.1061 656.8189,-205.991 656.8189,-205.991"/>
<polygon fill="#000000" stroke="#000000" points="653.319,-205.9909 656.8189,-215.991 660.319,-205.991 653.319,-205.9909"/>
</g>
<!-- CheckoutHeaderComponent  -->
<g id="node13" class="node">
<title>CheckoutHeaderComponent </title>
<polygon fill="#fb8072" stroke="#000000" points="489.3998,-252 310.6002,-252 310.6002,-216 489.3998,-216 489.3998,-252"/>
<text text-anchor="middle" x="400" y="-229.8" font-family="Times,serif" font-size="14.00" fill="#000000">CheckoutHeaderComponent </text>
</g>
<!-- HomeModule&#45;&gt;CheckoutHeaderComponent  -->
<g id="edge12" class="edge">
<title>HomeModule&#45;&gt;CheckoutHeaderComponent </title>
<path fill="none" stroke="#000000" stroke-dasharray="5,2" d="M631.0561,-180C573.6635,-180 484.0749,-180 484.0749,-180 484.0749,-180 484.0749,-205.7181 484.0749,-205.7181"/>
<polygon fill="#000000" stroke="#000000" points="480.575,-205.718 484.0749,-215.7181 487.575,-205.7181 480.575,-205.718"/>
</g>
<!-- HomeRoutingModule -->
<g id="node8" class="node">
<title>HomeRoutingModule</title>
<polygon fill="#8dd3c7" stroke="#000000" points="279.3795,-122 276.3795,-126 255.3795,-126 252.3795,-122 140.6205,-122 140.6205,-86 279.3795,-86 279.3795,-122"/>
<text text-anchor="middle" x="210" y="-99.8" font-family="Times,serif" font-size="14.00" fill="#000000">HomeRoutingModule</text>
</g>
<!-- HomeRoutingModule&#45;&gt;HomeModule -->
<g id="edge7" class="edge">
<title>HomeRoutingModule&#45;&gt;HomeModule</title>
<path fill="none" stroke="#000000" d="M210,-122.2667C210,-140.5552 210,-166 210,-166 210,-166 620.9836,-166 620.9836,-166"/>
<polygon fill="#000000" stroke="#000000" points="620.9836,-169.5001 630.9836,-166 620.9836,-162.5001 620.9836,-169.5001"/>
</g>
<!-- SharedModule -->
<g id="node9" class="node">
<title>SharedModule</title>
<polygon fill="#8dd3c7" stroke="#000000" points="122.4231,-122 119.4231,-126 98.4231,-126 95.4231,-122 23.5769,-122 23.5769,-86 122.4231,-86 122.4231,-122"/>
<text text-anchor="middle" x="73" y="-99.8" font-family="Times,serif" font-size="14.00" fill="#000000">SharedModule</text>
</g>
<!-- SharedModule&#45;&gt;HomeModule -->
<g id="edge8" class="edge">
<title>SharedModule&#45;&gt;HomeModule</title>
<path fill="none" stroke="#000000" d="M73,-122.1289C73,-142.5724 73,-173 73,-173 73,-173 621.0301,-173 621.0301,-173"/>
<polygon fill="#000000" stroke="#000000" points="621.0301,-176.5001 631.0301,-173 621.0301,-169.5001 621.0301,-176.5001"/>
</g>
</g>
</svg>
