<?xml version="1.0" encoding="UTF-8" standalone="no"?>
<!DOCTYPE svg PUBLIC "-//W3C//DTD SVG 1.1//EN"
 "http://www.w3.org/Graphics/SVG/1.1/DTD/svg11.dtd">
<!-- Generated by graphviz version 2.40.1 (20161225.0304)
 -->
<!-- Title: dependencies Pages: 1 -->
<svg width="1150pt" height="284pt"
 viewBox="0.00 0.00 1150.00 284.00" xmlns="http://www.w3.org/2000/svg" xmlns:xlink="http://www.w3.org/1999/xlink">
<g id="graph0" class="graph" transform="scale(1 1) rotate(0) translate(4 280)">
<title>dependencies</title>
<polygon fill="#ffffff" stroke="transparent" points="-4,4 -4,-280 1146,-280 1146,4 -4,4"/>
<text text-anchor="start" x="550.0091" y="-42.4" font-family="sans-serif" font-weight="bold" font-size="14.00" fill="#000000">Legend</text>
<polygon fill="#ffffb3" stroke="transparent" points="337,-10 337,-30 357,-30 357,-10 337,-10"/>
<text text-anchor="start" x="360.629" y="-15.4" font-family="sans-serif" font-size="14.00" fill="#000000"> &#160;Declarations</text>
<polygon fill="#8dd3c7" stroke="transparent" points="450,-10 450,-30 470,-30 470,-10 450,-10"/>
<text text-anchor="start" x="473.7251" y="-15.4" font-family="sans-serif" font-size="14.00" fill="#000000"> &#160;Module</text>
<polygon fill="#80b1d3" stroke="transparent" points="536,-10 536,-30 556,-30 556,-10 536,-10"/>
<text text-anchor="start" x="559.7812" y="-15.4" font-family="sans-serif" font-size="14.00" fill="#000000"> &#160;Bootstrap</text>
<polygon fill="#fdb462" stroke="transparent" points="633,-10 633,-30 653,-30 653,-10 633,-10"/>
<text text-anchor="start" x="656.6732" y="-15.4" font-family="sans-serif" font-size="14.00" fill="#000000"> &#160;Providers</text>
<polygon fill="#fb8072" stroke="transparent" points="729,-10 729,-30 749,-30 749,-10 729,-10"/>
<text text-anchor="start" x="752.7258" y="-15.4" font-family="sans-serif" font-size="14.00" fill="#000000"> &#160;Exports</text>
<g id="clust1" class="cluster">
<title>cluster_AppModule</title>
<polygon fill="none" stroke="#000000" stroke-dasharray="1,5" points="8,-70 8,-268 1134,-268 1134,-70 8,-70"/>
</g>
<g id="clust2" class="cluster">
<title>cluster_AppModule_declarations</title>
<polygon fill="none" stroke="#000000" points="1004,-78 1004,-130 1126,-130 1126,-78 1004,-78"/>
</g>
<g id="clust4" class="cluster">
<title>cluster_AppModule_imports</title>
<polygon fill="none" stroke="#000000" points="16,-78 16,-130 996,-130 996,-78 16,-78"/>
</g>
<g id="clust6" class="cluster">
<title>cluster_AppModule_bootstrap</title>
<polygon fill="none" stroke="#000000" points="507,-208 507,-260 631,-260 631,-208 507,-208"/>
</g>
<!-- AppComponent -->
<g id="node1" class="node">
<title>AppComponent</title>
<polygon fill="#ffffb3" stroke="#000000" points="1117.9399,-122 1012.0601,-122 1012.0601,-86 1117.9399,-86 1117.9399,-122"/>
<text text-anchor="middle" x="1065" y="-99.8" font-family="Times,serif" font-size="14.00" fill="#000000">AppComponent</text>
</g>
<!-- AppModule -->
<g id="node2" class="node">
<title>AppModule</title>
<polygon fill="#8dd3c7" stroke="#000000" points="610.6571,-187 607.6571,-191 586.6571,-191 583.6571,-187 527.3429,-187 527.3429,-151 610.6571,-151 610.6571,-187"/>
<text text-anchor="middle" x="569" y="-164.8" font-family="Times,serif" font-size="14.00" fill="#000000">AppModule</text>
</g>
<!-- AppComponent&#45;&gt;AppModule -->
<g id="edge1" class="edge">
<title>AppComponent&#45;&gt;AppModule</title>
<path fill="none" stroke="#000000" d="M1065,-122.0109C1065,-144.4852 1065,-180 1065,-180 1065,-180 620.8612,-180 620.8612,-180"/>
<polygon fill="#000000" stroke="#000000" points="620.8612,-176.5001 610.8612,-180 620.8612,-183.5001 620.8612,-176.5001"/>
</g>
<!-- AppComponent  -->
<g id="node11" class="node">
<title>AppComponent </title>
<polygon fill="#80b1d3" stroke="#000000" points="623.439,-252 514.561,-252 514.561,-216 623.439,-216 623.439,-252"/>
<text text-anchor="middle" x="569" y="-229.8" font-family="Times,serif" font-size="14.00" fill="#000000">AppComponent </text>
</g>
<!-- AppModule&#45;&gt;AppComponent  -->
<g id="edge10" class="edge">
<title>AppModule&#45;&gt;AppComponent </title>
<path fill="none" stroke="#000000" stroke-dasharray="1,5" d="M569,-187.1061C569,-187.1061 569,-205.991 569,-205.991"/>
<polygon fill="#000000" stroke="#000000" points="565.5001,-205.9909 569,-215.991 572.5001,-205.991 565.5001,-205.9909"/>
</g>
<!-- AppRoutingModule -->
<g id="node3" class="node">
<title>AppRoutingModule</title>
<polygon fill="#8dd3c7" stroke="#000000" points="988.2744,-122 985.2744,-126 964.2744,-126 961.2744,-122 859.7256,-122 859.7256,-86 988.2744,-86 988.2744,-122"/>
<text text-anchor="middle" x="924" y="-99.8" font-family="Times,serif" font-size="14.00" fill="#000000">AppRoutingModule</text>
</g>
<!-- AppRoutingModule&#45;&gt;AppModule -->
<g id="edge2" class="edge">
<title>AppRoutingModule&#45;&gt;AppModule</title>
<path fill="none" stroke="#000000" d="M924,-122.1289C924,-142.5724 924,-173 924,-173 924,-173 620.7669,-173 620.7669,-173"/>
<polygon fill="#000000" stroke="#000000" points="620.767,-169.5001 610.7669,-173 620.7669,-176.5001 620.767,-169.5001"/>
</g>
<!-- SharedModule -->
<g id="node4" class="node">
<title>SharedModule</title>
<polygon fill="#8dd3c7" stroke="#000000" points="841.4231,-122 838.4231,-126 817.4231,-126 814.4231,-122 742.5769,-122 742.5769,-86 841.4231,-86 841.4231,-122"/>
<text text-anchor="middle" x="792" y="-99.8" font-family="Times,serif" font-size="14.00" fill="#000000">SharedModule</text>
</g>
<!-- SharedModule&#45;&gt;AppModule -->
<g id="edge3" class="edge">
<title>SharedModule&#45;&gt;AppModule</title>
<path fill="none" stroke="#000000" d="M792,-122.2667C792,-140.5552 792,-166 792,-166 792,-166 620.683,-166 620.683,-166"/>
<polygon fill="#000000" stroke="#000000" points="620.683,-162.5001 610.683,-166 620.683,-169.5001 620.683,-162.5001"/>
</g>
<!-- HomeModule -->
<g id="node5" class="node">
<title>HomeModule</title>
<polygon fill="#8dd3c7" stroke="#000000" points="724.7619,-122 721.7619,-126 700.7619,-126 697.7619,-122 631.2381,-122 631.2381,-86 724.7619,-86 724.7619,-122"/>
<text text-anchor="middle" x="678" y="-99.8" font-family="Times,serif" font-size="14.00" fill="#000000">HomeModule</text>
</g>
<!-- HomeModule&#45;&gt;AppModule -->
<g id="edge4" class="edge">
<title>HomeModule&#45;&gt;AppModule</title>
<path fill="none" stroke="#000000" d="M678,-122.0091C678,-138.0494 678,-159 678,-159 678,-159 620.8305,-159 620.8305,-159"/>
<polygon fill="#000000" stroke="#000000" points="620.8305,-155.5001 610.8305,-159 620.8305,-162.5001 620.8305,-155.5001"/>
</g>
<!-- AuthModule -->
<g id="node6" class="node">
<title>AuthModule</title>
<polygon fill="#8dd3c7" stroke="#000000" points="612.5482,-122 609.5482,-126 588.5482,-126 585.5482,-122 525.4518,-122 525.4518,-86 612.5482,-86 612.5482,-122"/>
<text text-anchor="middle" x="569" y="-99.8" font-family="Times,serif" font-size="14.00" fill="#000000">AuthModule</text>
</g>
<!-- AuthModule&#45;&gt;AppModule -->
<g id="edge5" class="edge">
<title>AuthModule&#45;&gt;AppModule</title>
<path fill="none" stroke="#000000" d="M569,-122.1061C569,-122.1061 569,-140.991 569,-140.991"/>
<polygon fill="#000000" stroke="#000000" points="565.5001,-140.9909 569,-150.991 572.5001,-140.991 565.5001,-140.9909"/>
</g>
<!-- CoreModule -->
<g id="node7" class="node">
<title>CoreModule</title>
<polygon fill="#8dd3c7" stroke="#000000" points="507.2619,-122 504.2619,-126 483.2619,-126 480.2619,-122 420.7381,-122 420.7381,-86 507.2619,-86 507.2619,-122"/>
<text text-anchor="middle" x="464" y="-99.8" font-family="Times,serif" font-size="14.00" fill="#000000">CoreModule</text>
</g>
<!-- CoreModule&#45;&gt;AppModule -->
<g id="edge6" class="edge">
<title>CoreModule&#45;&gt;AppModule</title>
<path fill="none" stroke="#000000" d="M464,-122.0091C464,-138.0494 464,-159 464,-159 464,-159 517.1995,-159 517.1995,-159"/>
<polygon fill="#000000" stroke="#000000" points="517.1996,-162.5001 527.1995,-159 517.1995,-155.5001 517.1996,-162.5001"/>
</g>
<!-- ProductModule -->
<g id="node8" class="node">
<title>ProductModule</title>
<polygon fill="#8dd3c7" stroke="#000000" points="402.5982,-122 399.5982,-126 378.5982,-126 375.5982,-122 299.4018,-122 299.4018,-86 402.5982,-86 402.5982,-122"/>
<text text-anchor="middle" x="351" y="-99.8" font-family="Times,serif" font-size="14.00" fill="#000000">ProductModule</text>
</g>
<!-- ProductModule&#45;&gt;AppModule -->
<g id="edge7" class="edge">
<title>ProductModule&#45;&gt;AppModule</title>
<path fill="none" stroke="#000000" d="M351,-122.2667C351,-140.5552 351,-166 351,-166 351,-166 517.2253,-166 517.2253,-166"/>
<polygon fill="#000000" stroke="#000000" points="517.2254,-169.5001 527.2253,-166 517.2253,-162.5001 517.2254,-169.5001"/>
</g>
<!-- CheckoutModule -->
<g id="node9" class="node">
<title>CheckoutModule</title>
<polygon fill="#8dd3c7" stroke="#000000" points="281.7064,-122 278.7064,-126 257.7064,-126 254.7064,-122 168.2936,-122 168.2936,-86 281.7064,-86 281.7064,-122"/>
<text text-anchor="middle" x="225" y="-99.8" font-family="Times,serif" font-size="14.00" fill="#000000">CheckoutModule</text>
</g>
<!-- CheckoutModule&#45;&gt;AppModule -->
<g id="edge8" class="edge">
<title>CheckoutModule&#45;&gt;AppModule</title>
<path fill="none" stroke="#000000" d="M225,-122.1289C225,-142.5724 225,-173 225,-173 225,-173 517.1628,-173 517.1628,-173"/>
<polygon fill="#000000" stroke="#000000" points="517.1628,-176.5001 527.1628,-173 517.1627,-169.5001 517.1628,-176.5001"/>
</g>
<!-- InformationModule -->
<g id="node10" class="node">
<title>InformationModule</title>
<polygon fill="#8dd3c7" stroke="#000000" points="150.4187,-122 147.4187,-126 126.4187,-126 123.4187,-122 23.5813,-122 23.5813,-86 150.4187,-86 150.4187,-122"/>
<text text-anchor="middle" x="87" y="-99.8" font-family="Times,serif" font-size="14.00" fill="#000000">InformationModule</text>
</g>
<!-- InformationModule&#45;&gt;AppModule -->
<g id="edge9" class="edge">
<title>InformationModule&#45;&gt;AppModule</title>
<path fill="none" stroke="#000000" d="M87,-122.0109C87,-144.4852 87,-180 87,-180 87,-180 517.0688,-180 517.0688,-180"/>
<polygon fill="#000000" stroke="#000000" points="517.0689,-183.5001 527.0688,-180 517.0688,-176.5001 517.0689,-183.5001"/>
</g>
</g>
</svg>
