<?xml version="1.0" encoding="UTF-8" standalone="no"?>
<!DOCTYPE svg PUBLIC "-//W3C//DTD SVG 1.1//EN"
 "http://www.w3.org/Graphics/SVG/1.1/DTD/svg11.dtd">
<!-- Generated by graphviz version 2.40.1 (20161225.0304)
 -->
<!-- Title: dependencies Pages: 1 -->
<svg width="1120pt" height="211pt"
 viewBox="0.00 0.00 1120.00 211.00" xmlns="http://www.w3.org/2000/svg" xmlns:xlink="http://www.w3.org/1999/xlink">
<g id="graph0" class="graph" transform="scale(1 1) rotate(0) translate(4 207)">
<title>dependencies</title>
<polygon fill="#ffffff" stroke="transparent" points="-4,4 -4,-207 1116,-207 1116,4 -4,4"/>
<text text-anchor="start" x="535.0091" y="-42.4" font-family="sans-serif" font-weight="bold" font-size="14.00" fill="#000000">Legend</text>
<polygon fill="#ffffb3" stroke="transparent" points="322,-10 322,-30 342,-30 342,-10 322,-10"/>
<text text-anchor="start" x="345.629" y="-15.4" font-family="sans-serif" font-size="14.00" fill="#000000"> &#160;Declarations</text>
<polygon fill="#8dd3c7" stroke="transparent" points="435,-10 435,-30 455,-30 455,-10 435,-10"/>
<text text-anchor="start" x="458.7251" y="-15.4" font-family="sans-serif" font-size="14.00" fill="#000000"> &#160;Module</text>
<polygon fill="#80b1d3" stroke="transparent" points="521,-10 521,-30 541,-30 541,-10 521,-10"/>
<text text-anchor="start" x="544.7812" y="-15.4" font-family="sans-serif" font-size="14.00" fill="#000000"> &#160;Bootstrap</text>
<polygon fill="#fdb462" stroke="transparent" points="618,-10 618,-30 638,-30 638,-10 618,-10"/>
<text text-anchor="start" x="641.6732" y="-15.4" font-family="sans-serif" font-size="14.00" fill="#000000"> &#160;Providers</text>
<polygon fill="#fb8072" stroke="transparent" points="714,-10 714,-30 734,-30 734,-10 714,-10"/>
<text text-anchor="start" x="737.7258" y="-15.4" font-family="sans-serif" font-size="14.00" fill="#000000"> &#160;Exports</text>
<g id="clust1" class="cluster">
<title>cluster_ProductModule</title>
<polygon fill="none" stroke="#000000" stroke-dasharray="1,5" points="8,-70 8,-195 1104,-195 1104,-70 8,-70"/>
</g>
<g id="clust2" class="cluster">
<title>cluster_ProductModule_declarations</title>
<polygon fill="none" stroke="#000000" points="304,-78 304,-130 1096,-130 1096,-78 304,-78"/>
</g>
<g id="clust8" class="cluster">
<title>cluster_ProductModule_imports</title>
<polygon fill="none" stroke="#000000" points="16,-78 16,-130 296,-130 296,-78 16,-78"/>
</g>
<!-- ProductDetailsComponent -->
<g id="node1" class="node">
<title>ProductDetailsComponent</title>
<polygon fill="#ffffb3" stroke="#000000" points="1088.0337,-122 923.9663,-122 923.9663,-86 1088.0337,-86 1088.0337,-122"/>
<text text-anchor="middle" x="1006" y="-99.8" font-family="Times,serif" font-size="14.00" fill="#000000">ProductDetailsComponent</text>
</g>
<!-- ProductModule -->
<g id="node6" class="node">
<title>ProductModule</title>
<polygon fill="#8dd3c7" stroke="#000000" points="587.5982,-187 584.5982,-191 563.5982,-191 560.5982,-187 484.4018,-187 484.4018,-151 587.5982,-151 587.5982,-187"/>
<text text-anchor="middle" x="536" y="-164.8" font-family="Times,serif" font-size="14.00" fill="#000000">ProductModule</text>
</g>
<!-- ProductDetailsComponent&#45;&gt;ProductModule -->
<g id="edge1" class="edge">
<title>ProductDetailsComponent&#45;&gt;ProductModule</title>
<path fill="none" stroke="#000000" d="M1006,-122.2921C1006,-144.2057 1006,-178 1006,-178 1006,-178 597.6427,-178 597.6427,-178"/>
<polygon fill="#000000" stroke="#000000" points="597.6427,-174.5001 587.6427,-178 597.6426,-181.5001 597.6427,-174.5001"/>
</g>
<!-- ProductComponent -->
<g id="node2" class="node">
<title>ProductComponent</title>
<polygon fill="#ffffb3" stroke="#000000" points="905.3809,-122 780.6191,-122 780.6191,-86 905.3809,-86 905.3809,-122"/>
<text text-anchor="middle" x="843" y="-99.8" font-family="Times,serif" font-size="14.00" fill="#000000">ProductComponent</text>
</g>
<!-- ProductComponent&#45;&gt;ProductModule -->
<g id="edge2" class="edge">
<title>ProductComponent&#45;&gt;ProductModule</title>
<path fill="none" stroke="#000000" d="M843,-122.1061C843,-141.3391 843,-169 843,-169 843,-169 597.7312,-169 597.7312,-169"/>
<polygon fill="#000000" stroke="#000000" points="597.7312,-165.5001 587.7312,-169 597.7312,-172.5001 597.7312,-165.5001"/>
</g>
<!-- ProductListComponent -->
<g id="node3" class="node">
<title>ProductListComponent</title>
<polygon fill="#ffffb3" stroke="#000000" points="762.1596,-122 615.8404,-122 615.8404,-86 762.1596,-86 762.1596,-122"/>
<text text-anchor="middle" x="689" y="-99.8" font-family="Times,serif" font-size="14.00" fill="#000000">ProductListComponent</text>
</g>
<!-- ProductListComponent&#45;&gt;ProductModule -->
<g id="edge3" class="edge">
<title>ProductListComponent&#45;&gt;ProductModule</title>
<path fill="none" stroke="#000000" d="M689,-122.027C689,-138.3976 689,-160 689,-160 689,-160 597.7988,-160 597.7988,-160"/>
<polygon fill="#000000" stroke="#000000" points="597.7989,-156.5001 587.7988,-160 597.7988,-163.5001 597.7989,-156.5001"/>
</g>
<!-- SidebarComponent -->
<g id="node4" class="node">
<title>SidebarComponent</title>
<polygon fill="#ffffb3" stroke="#000000" points="598.0954,-122 473.9046,-122 473.9046,-86 598.0954,-86 598.0954,-122"/>
<text text-anchor="middle" x="536" y="-99.8" font-family="Times,serif" font-size="14.00" fill="#000000">SidebarComponent</text>
</g>
<!-- SidebarComponent&#45;&gt;ProductModule -->
<g id="edge4" class="edge">
<title>SidebarComponent&#45;&gt;ProductModule</title>
<path fill="none" stroke="#000000" d="M536,-122.1061C536,-122.1061 536,-140.991 536,-140.991"/>
<polygon fill="#000000" stroke="#000000" points="532.5001,-140.9909 536,-150.991 539.5001,-140.991 532.5001,-140.9909"/>
</g>
<!-- RateModalComponent -->
<g id="node5" class="node">
<title>RateModalComponent</title>
<polygon fill="#ffffb3" stroke="#000000" points="455.5393,-122 312.4607,-122 312.4607,-86 455.5393,-86 455.5393,-122"/>
<text text-anchor="middle" x="384" y="-99.8" font-family="Times,serif" font-size="14.00" fill="#000000">RateModalComponent</text>
</g>
<!-- RateModalComponent&#45;&gt;ProductModule -->
<g id="edge5" class="edge">
<title>RateModalComponent&#45;&gt;ProductModule</title>
<path fill="none" stroke="#000000" d="M384,-122.027C384,-138.3976 384,-160 384,-160 384,-160 474.1154,-160 474.1154,-160"/>
<polygon fill="#000000" stroke="#000000" points="474.1154,-163.5001 484.1154,-160 474.1153,-156.5001 474.1154,-163.5001"/>
</g>
<!-- ProductRoutingModule -->
<g id="node7" class="node">
<title>ProductRoutingModule</title>
<polygon fill="#8dd3c7" stroke="#000000" points="288.2162,-122 285.2162,-126 264.2162,-126 261.2162,-122 139.7838,-122 139.7838,-86 288.2162,-86 288.2162,-122"/>
<text text-anchor="middle" x="214" y="-99.8" font-family="Times,serif" font-size="14.00" fill="#000000">ProductRoutingModule</text>
</g>
<!-- ProductRoutingModule&#45;&gt;ProductModule -->
<g id="edge6" class="edge">
<title>ProductRoutingModule&#45;&gt;ProductModule</title>
<path fill="none" stroke="#000000" d="M214,-122.1061C214,-141.3391 214,-169 214,-169 214,-169 474.2651,-169 474.2651,-169"/>
<polygon fill="#000000" stroke="#000000" points="474.2652,-172.5001 484.2651,-169 474.2651,-165.5001 474.2652,-172.5001"/>
</g>
<!-- SharedModule -->
<g id="node8" class="node">
<title>SharedModule</title>
<polygon fill="#8dd3c7" stroke="#000000" points="122.4231,-122 119.4231,-126 98.4231,-126 95.4231,-122 23.5769,-122 23.5769,-86 122.4231,-86 122.4231,-122"/>
<text text-anchor="middle" x="73" y="-99.8" font-family="Times,serif" font-size="14.00" fill="#000000">SharedModule</text>
</g>
<!-- SharedModule&#45;&gt;ProductModule -->
<g id="edge7" class="edge">
<title>SharedModule&#45;&gt;ProductModule</title>
<path fill="none" stroke="#000000" d="M73,-122.2921C73,-144.2057 73,-178 73,-178 73,-178 474.2357,-178 474.2357,-178"/>
<polygon fill="#000000" stroke="#000000" points="474.2358,-181.5001 484.2357,-178 474.2357,-174.5001 474.2358,-181.5001"/>
</g>
</g>
</svg>
